<?xml version="1.0" encoding="utf-8" ?>
<svg width="198" height="30" viewBox="0 0 198 30" fill="none" xmlns="http://www.w3.org/2000/svg">
<rect width="31.2" height="30" rx="4.8" fill="#040A5C"/>
<path fill-rule="evenodd" clip-rule="evenodd" d="M10.5835 6.47256C9.927 6.51974 9.96914 6.73371 9.83594 6.97093L25.817 6.82408C26.2404 6.81743 26.5183 6.66991 26.6053 6.38285C26.6121 6.35893 26.5944 6.30842 26.5679 6.30909L10.5835 6.47256Z" fill="white"/>
<path fill-rule="evenodd" clip-rule="evenodd" d="M20.6082 22.3528C21.2722 22.305 21.2287 22.0903 21.3633 21.8511L5.21844 21.9986C4.75496 22.0059 4.4641 22.1794 4.4043 22.5183L20.6082 22.3528Z" fill="white"/>
<path fill-rule="evenodd" clip-rule="evenodd" d="M17.8138 7.60645C18.4044 7.60645 18.7401 8.14467 18.5627 8.80915C18.386 9.47363 17.7642 10.0125 17.1736 10.0125C16.5831 10.0125 16.2474 9.47363 16.4241 8.80915C16.6008 8.14467 17.2226 7.60645 17.8138 7.60645Z" fill="white"/>
<path fill-rule="evenodd" clip-rule="evenodd" d="M5.74179 24.8363C16.3657 20.9942 20.5995 8.22557 11.1866 4.81213C11.0398 4.75898 10.7224 5.07328 11.0799 5.23342C16.9855 6.70591 17.9838 18.5523 4.85901 24.2356C4.65514 24.324 4.9161 25.1685 5.74179 24.8363Z" fill="white"/>
<path fill-rule="evenodd" clip-rule="evenodd" d="M19.5487 24.7429C10.2833 21.146 15.2973 7.8013 26.3446 4.52741C26.488 4.48489 26.6211 5.12545 26.2392 5.25768C19.3584 6.59993 11.247 19.0543 20.7822 24.1342C20.9453 24.2206 20.2134 25.0798 19.5487 24.7429Z" fill="white"/>
<path d="M35.248 12.8065L37.9762 5.70269H38.9889L41.8963 12.8065H40.8254L39.9968 10.655H37.0264L36.2463 12.8065H35.248ZM37.2978 9.88937H39.7061L38.9647 7.92201C38.7386 7.32438 38.5706 6.83335 38.4607 6.44892C38.3703 6.90442 38.2427 7.35668 38.0779 7.80572L37.2978 9.88937Z" fill="#040A5C"/>
<path d="M42.1871 11.2704L43.0496 11.1347C43.0981 11.4804 43.2321 11.7453 43.4518 11.9294C43.6747 12.1135 43.9848 12.2056 44.3822 12.2056C44.7828 12.2056 45.08 12.1248 45.2738 11.9633C45.4676 11.7986 45.5645 11.6064 45.5645 11.3867C45.5645 11.1896 45.4789 11.0346 45.3077 10.9215C45.1882 10.844 44.891 10.7454 44.4161 10.6259C43.7765 10.4644 43.3323 10.3255 43.0835 10.2092C42.838 10.0897 42.6507 9.92652 42.5214 9.71977C42.3955 9.50979 42.3325 9.27881 42.3325 9.02683C42.3325 8.79747 42.3841 8.58588 42.4875 8.39205C42.5941 8.19499 42.7379 8.03185 42.9188 7.90263C43.0545 7.80249 43.2386 7.7185 43.4712 7.65066C43.707 7.57959 43.959 7.54405 44.2271 7.54405C44.6309 7.54405 44.9847 7.6022 45.2883 7.7185C45.5952 7.83479 45.8214 7.99309 45.9667 8.19337C46.1121 8.39043 46.2122 8.65533 46.2672 8.98807L45.4143 9.10437C45.3756 8.83947 45.2625 8.63272 45.0751 8.48412C44.891 8.33551 44.6293 8.26121 44.2901 8.26121C43.8895 8.26121 43.6036 8.32744 43.4324 8.45989C43.2612 8.59234 43.1756 8.7474 43.1756 8.92507C43.1756 9.03814 43.2111 9.1399 43.2822 9.23035C43.3533 9.32404 43.4647 9.40157 43.6166 9.46295C43.7038 9.49525 43.9606 9.56955 44.387 9.68585C45.0041 9.8506 45.4337 9.98628 45.676 10.0929C45.9215 10.1963 46.1137 10.3481 46.2526 10.5484C46.3915 10.7487 46.461 10.9974 46.461 11.2946C46.461 11.5854 46.3754 11.86 46.2042 12.1184C46.0362 12.3736 45.7923 12.5723 45.4725 12.7144C45.1527 12.8533 44.7908 12.9228 44.387 12.9228C43.7183 12.9228 43.2079 12.7839 42.8558 12.506C42.5069 12.2282 42.284 11.8163 42.1871 11.2704Z" fill="#040A5C"/>
<path d="M47.1733 10.2334C47.1733 9.28043 47.4382 8.57457 47.968 8.11584C48.4106 7.73465 48.9501 7.54405 49.5865 7.54405C50.2939 7.54405 50.8722 7.77664 51.3212 8.24183C51.7703 8.70379 51.9948 9.34342 51.9948 10.1607C51.9948 10.823 51.8946 11.3447 51.6943 11.7259C51.4973 12.1039 51.2082 12.3978 50.827 12.6078C50.449 12.8178 50.0355 12.9228 49.5865 12.9228C48.8661 12.9228 48.283 12.6918 47.8372 12.2298C47.3946 11.7679 47.1733 11.1024 47.1733 10.2334ZM48.0698 10.2334C48.0698 10.8924 48.2135 11.3867 48.501 11.7162C48.7885 12.0425 49.1504 12.2056 49.5865 12.2056C50.0193 12.2056 50.3795 12.0409 50.6671 11.7113C50.9546 11.3818 51.0983 10.8795 51.0983 10.2043C51.0983 9.56794 50.953 9.0866 50.6622 8.76032C50.3747 8.43081 50.0161 8.26606 49.5865 8.26606C49.1504 8.26606 48.7885 8.4292 48.501 8.75547C48.2135 9.08175 48.0698 9.5744 48.0698 10.2334Z" fill="#040A5C"/>
<path d="M56.3801 10.9215L57.2378 11.033C57.1441 11.6241 56.9035 12.0877 56.5158 12.4237C56.1314 12.7564 55.6581 12.9228 55.096 12.9228C54.3918 12.9228 53.8248 12.6934 53.3952 12.2347C52.9688 11.7727 52.7556 11.1121 52.7556 10.2528C52.7556 9.69715 52.8476 9.21097 53.0318 8.79424C53.2159 8.37751 53.4953 8.06577 53.8701 7.85902C54.248 7.64904 54.6583 7.54405 55.1009 7.54405C55.6597 7.54405 56.1168 7.68619 56.4722 7.97047C56.8276 8.25152 57.0553 8.6521 57.1554 9.1722L56.3074 9.30304C56.2267 8.95738 56.0829 8.69733 55.8762 8.52288C55.6727 8.34844 55.4255 8.26121 55.1348 8.26121C54.6954 8.26121 54.3385 8.41951 54.0639 8.73609C53.7893 9.04945 53.652 9.54694 53.652 10.2286C53.652 10.9199 53.7845 11.4222 54.0494 11.7356C54.3143 12.0489 54.6599 12.2056 55.0863 12.2056C55.4288 12.2056 55.7147 12.1006 55.944 11.8906C56.1734 11.6807 56.3188 11.3576 56.3801 10.9215Z" fill="#040A5C"/>
<path d="M57.9889 6.70574V5.70269H58.8611V6.70574H57.9889ZM57.9889 12.8065V7.66035H58.8611V12.8065H57.9889Z" fill="#040A5C"/>
<path d="M63.5518 12.1717C63.2287 12.4463 62.917 12.6401 62.6165 12.7532C62.3193 12.8662 61.9995 12.9228 61.6571 12.9228C61.0918 12.9228 60.6573 12.7855 60.3536 12.5109C60.0499 12.2331 59.8981 11.8793 59.8981 11.4497C59.8981 11.1977 59.9546 10.9683 60.0677 10.7616C60.184 10.5516 60.3342 10.3836 60.5184 10.2576C60.7057 10.1317 60.9157 10.0364 61.1483 9.97175C61.3195 9.92652 61.578 9.88291 61.9236 9.84091C62.6279 9.75692 63.1463 9.65677 63.4791 9.54048C63.4823 9.42095 63.4839 9.34503 63.4839 9.31273C63.4839 8.95738 63.4015 8.70702 63.2368 8.56165C63.0139 8.36459 62.6828 8.26606 62.2434 8.26606C61.8332 8.26606 61.5295 8.33874 61.3324 8.48412C61.1386 8.62626 60.9949 8.87985 60.9012 9.24489L60.0483 9.12859C60.1259 8.76355 60.2535 8.46958 60.4311 8.24668C60.6088 8.02054 60.8656 7.84771 61.2016 7.72819C61.5376 7.60543 61.9268 7.54405 62.3694 7.54405C62.8088 7.54405 63.1657 7.59574 63.4403 7.69911C63.7149 7.80249 63.9168 7.93332 64.046 8.09161C64.1752 8.24668 64.2657 8.44373 64.3174 8.68279C64.3465 8.83139 64.361 9.09952 64.361 9.48717V10.6501C64.361 11.461 64.3788 11.9746 64.4143 12.1911C64.4531 12.4043 64.5274 12.6094 64.6372 12.8065H63.7262C63.6358 12.6256 63.5776 12.414 63.5518 12.1717ZM63.4791 10.2237C63.1625 10.3529 62.6876 10.4628 62.0544 10.5532C61.6959 10.6049 61.4423 10.6631 61.2937 10.7277C61.1451 10.7923 61.0304 10.8876 60.9496 11.0136C60.8689 11.1363 60.8285 11.2736 60.8285 11.4255C60.8285 11.658 60.9157 11.8519 61.0902 12.0069C61.2678 12.162 61.5263 12.2395 61.8655 12.2395C62.2014 12.2395 62.5002 12.1668 62.7619 12.0215C63.0236 11.8729 63.2158 11.671 63.3386 11.4158C63.4322 11.2187 63.4791 10.928 63.4791 10.5435V10.2237Z" fill="#040A5C"/>
<path d="M69.0759 10.9215L69.9335 11.033C69.8399 11.6241 69.5992 12.0877 69.2115 12.4237C68.8271 12.7564 68.3539 12.9228 67.7918 12.9228C67.0875 12.9228 66.5206 12.6934 66.0909 12.2347C65.6645 11.7727 65.4513 11.1121 65.4513 10.2528C65.4513 9.69715 65.5433 9.21097 65.7275 8.79424C65.9116 8.37751 66.1911 8.06577 66.5658 7.85902C66.9438 7.64904 67.354 7.54405 67.7966 7.54405C68.3555 7.54405 68.8126 7.68619 69.1679 7.97047C69.5233 8.25152 69.751 8.6521 69.8512 9.1722L69.0032 9.30304C68.9224 8.95738 68.7787 8.69733 68.5719 8.52288C68.3684 8.34844 68.1213 8.26121 67.8305 8.26121C67.3912 8.26121 67.0342 8.41951 66.7596 8.73609C66.485 9.04945 66.3477 9.54694 66.3477 10.2286C66.3477 10.9199 66.4802 11.4222 66.7451 11.7356C67.01 12.0489 67.3556 12.2056 67.7821 12.2056C68.1245 12.2056 68.4104 12.1006 68.6397 11.8906C68.8691 11.6807 69.0145 11.3576 69.0759 10.9215Z" fill="#040A5C"/>
<path d="M70.6846 6.70574V5.70269H71.5569V6.70574H70.6846ZM70.6846 12.8065V7.66035H71.5569V12.8065H70.6846Z" fill="#040A5C"/>
<path d="M72.5648 10.2334C72.5648 9.28043 72.8297 8.57457 73.3595 8.11584C73.802 7.73465 74.3415 7.54405 74.9779 7.54405C75.6854 7.54405 76.2636 7.77664 76.7127 8.24183C77.1617 8.70379 77.3862 9.34342 77.3862 10.1607C77.3862 10.823 77.2861 11.3447 77.0858 11.7259C76.8887 12.1039 76.5996 12.3978 76.2184 12.6078C75.8405 12.8178 75.427 12.9228 74.9779 12.9228C74.2575 12.9228 73.6744 12.6918 73.2286 12.2298C72.7861 11.7679 72.5648 11.1024 72.5648 10.2334ZM73.4612 10.2334C73.4612 10.8924 73.605 11.3867 73.8925 11.7162C74.18 12.0425 74.5418 12.2056 74.9779 12.2056C75.4108 12.2056 75.771 12.0409 76.0585 11.7113C76.346 11.3818 76.4898 10.8795 76.4898 10.2043C76.4898 9.56794 76.3444 9.0866 76.0537 8.76032C75.7662 8.43081 75.4076 8.26606 74.9779 8.26606C74.5418 8.26606 74.18 8.4292 73.8925 8.75547C73.605 9.08175 73.4612 9.5744 73.4612 10.2334ZM74.4934 7.02072L75.1378 5.66392H76.2814L75.2154 7.02072H74.4934Z" fill="#040A5C"/>
<path d="M78.4135 12.8065V7.66035H79.1985V8.39205C79.5765 7.82672 80.1224 7.54405 80.8364 7.54405C81.1465 7.54405 81.4308 7.60058 81.6892 7.71365C81.9509 7.82349 82.1463 7.96886 82.2755 8.14976C82.4048 8.33067 82.4952 8.54549 82.5469 8.79424C82.5792 8.95576 82.5954 9.23843 82.5954 9.64224V12.8065H81.7231V9.67616C81.7231 9.32081 81.6892 9.05591 81.6214 8.88146C81.5535 8.70379 81.4324 8.56326 81.2579 8.45989C81.0867 8.35328 80.8848 8.29998 80.6522 8.29998C80.2807 8.29998 79.9593 8.41789 79.6879 8.65372C79.4198 8.88954 79.2857 9.33696 79.2857 9.99597V12.8065H78.4135Z" fill="#040A5C"/>
<path d="M91.8797 10.3158L92.8198 10.5532C92.6227 11.3253 92.2674 11.9149 91.7537 12.3219C91.2433 12.7257 90.6182 12.9276 89.8784 12.9276C89.1128 12.9276 88.4893 12.7726 88.008 12.4624C87.5299 12.1491 87.1648 11.6968 86.9129 11.1056C86.6641 10.5145 86.5398 9.87968 86.5398 9.20128C86.5398 8.4615 86.6803 7.81702 86.9613 7.26785C87.2456 6.71544 87.6478 6.29709 88.1679 6.01281C88.6912 5.7253 89.2663 5.58154 89.893 5.58154C90.6037 5.58154 91.2013 5.76245 91.6859 6.12426C92.1705 6.48607 92.508 6.99487 92.6986 7.65066L91.7731 7.86871C91.6084 7.35184 91.3693 6.97549 91.0559 6.73966C90.7426 6.50384 90.3485 6.38593 89.8736 6.38593C89.3276 6.38593 88.8705 6.51676 88.5023 6.77843C88.1372 7.0401 87.8804 7.39222 87.7318 7.83479C87.5832 8.27414 87.5089 8.72802 87.5089 9.19643C87.5089 9.80053 87.5961 10.3287 87.7706 10.781C87.9482 11.23 88.2228 11.566 88.5943 11.7889C88.9658 12.0118 89.368 12.1232 89.8009 12.1232C90.3275 12.1232 90.7733 11.9714 91.1383 11.6677C91.5034 11.3641 91.7505 10.9134 91.8797 10.3158Z" fill="#040A5C"/>
<path d="M93.5466 10.2334C93.5466 9.28043 93.8115 8.57457 94.3413 8.11584C94.7839 7.73465 95.3234 7.54405 95.9598 7.54405C96.6673 7.54405 97.2455 7.77664 97.6945 8.24183C98.1436 8.70379 98.3681 9.34342 98.3681 10.1607C98.3681 10.823 98.268 11.3447 98.0677 11.7259C97.8706 12.1039 97.5815 12.3978 97.2003 12.6078C96.8223 12.8178 96.4088 12.9228 95.9598 12.9228C95.2394 12.9228 94.6563 12.6918 94.2105 12.2298C93.7679 11.7679 93.5466 11.1024 93.5466 10.2334ZM94.4431 10.2334C94.4431 10.8924 94.5868 11.3867 94.8744 11.7162C95.1619 12.0425 95.5237 12.2056 95.9598 12.2056C96.3927 12.2056 96.7529 12.0409 97.0404 11.7113C97.3279 11.3818 97.4716 10.8795 97.4716 10.2043C97.4716 9.56794 97.3263 9.0866 97.0355 8.76032C96.748 8.43081 96.3894 8.26606 95.9598 8.26606C95.5237 8.26606 95.1619 8.4292 94.8744 8.75547C94.5868 9.08175 94.4431 9.5744 94.4431 10.2334Z" fill="#040A5C"/>
<path d="M99.376 12.8065V5.70269H100.248V12.8065H99.376Z" fill="#040A5C"/>
<path d="M101.28 10.2334C101.28 9.28043 101.545 8.57457 102.075 8.11584C102.518 7.73465 103.057 7.54405 103.694 7.54405C104.401 7.54405 104.979 7.77664 105.428 8.24183C105.877 8.70379 106.102 9.34342 106.102 10.1607C106.102 10.823 106.002 11.3447 105.801 11.7259C105.604 12.1039 105.315 12.3978 104.934 12.6078C104.556 12.8178 104.143 12.9228 103.694 12.9228C102.973 12.9228 102.39 12.6918 101.944 12.2298C101.502 11.7679 101.28 11.1024 101.28 10.2334ZM102.177 10.2334C102.177 10.8924 102.321 11.3867 102.608 11.7162C102.896 12.0425 103.257 12.2056 103.694 12.2056C104.126 12.2056 104.487 12.0409 104.774 11.7113C105.062 11.3818 105.205 10.8795 105.205 10.2043C105.205 9.56794 105.06 9.0866 104.769 8.76032C104.482 8.43081 104.123 8.26606 103.694 8.26606C103.257 8.26606 102.896 8.4292 102.608 8.75547C102.321 9.08175 102.177 9.5744 102.177 10.2334Z" fill="#040A5C"/>
<path d="M107.129 12.8065V7.66035H107.909V8.38236C108.071 8.13038 108.286 7.92848 108.554 7.77664C108.822 7.62158 109.127 7.54405 109.47 7.54405C109.851 7.54405 110.163 7.6232 110.405 7.78149C110.65 7.93978 110.823 8.16107 110.923 8.44535C111.33 7.84448 111.86 7.54405 112.513 7.54405C113.023 7.54405 113.416 7.68619 113.69 7.97047C113.965 8.25152 114.102 8.68602 114.102 9.27396V12.8065H113.235V9.56471C113.235 9.21582 113.206 8.96545 113.147 8.81362C113.093 8.65856 112.991 8.53419 112.842 8.4405C112.694 8.34682 112.519 8.29998 112.319 8.29998C111.957 8.29998 111.657 8.42112 111.418 8.66341C111.179 8.90246 111.059 9.28689 111.059 9.81668V12.8065H110.187V9.46295C110.187 9.07529 110.116 8.78455 109.974 8.59072C109.831 8.39689 109.599 8.29998 109.276 8.29998C109.03 8.29998 108.803 8.36459 108.593 8.49381C108.386 8.62303 108.236 8.81201 108.142 9.06075C108.048 9.3095 108.001 9.66808 108.001 10.1365V12.8065H107.129Z" fill="#040A5C"/>
<path d="M116.2 12.8065H115.391V5.70269H116.263V8.23699C116.632 7.77503 117.102 7.54405 117.673 7.54405C117.99 7.54405 118.289 7.60866 118.57 7.73788C118.854 7.86387 119.087 8.04316 119.268 8.27575C119.452 8.50511 119.595 8.78293 119.699 9.10921C119.802 9.43549 119.854 9.78438 119.854 10.1559C119.854 11.0378 119.636 11.7194 119.2 12.2008C118.764 12.6821 118.24 12.9228 117.63 12.9228C117.022 12.9228 116.546 12.6692 116.2 12.162V12.8065ZM116.191 10.1946C116.191 10.8117 116.275 11.2575 116.443 11.5321C116.717 11.9811 117.089 12.2056 117.557 12.2056C117.938 12.2056 118.268 12.0409 118.546 11.7113C118.823 11.3786 118.962 10.8844 118.962 10.2286C118.962 9.55663 118.828 9.06075 118.56 8.74094C118.295 8.42112 117.974 8.26121 117.596 8.26121C117.215 8.26121 116.885 8.42758 116.607 8.76032C116.329 9.08983 116.191 9.56794 116.191 10.1946Z" fill="#040A5C"/>
<path d="M120.925 6.70574V5.70269H121.797V6.70574H120.925ZM120.925 12.8065V7.66035H121.797V12.8065H120.925Z" fill="#040A5C"/>
<path d="M126.488 12.1717C126.165 12.4463 125.853 12.6401 125.552 12.7532C125.255 12.8662 124.935 12.9228 124.593 12.9228C124.028 12.9228 123.593 12.7855 123.29 12.5109C122.986 12.2331 122.834 11.8793 122.834 11.4497C122.834 11.1977 122.891 10.9683 123.004 10.7616C123.12 10.5516 123.27 10.3836 123.454 10.2576C123.642 10.1317 123.852 10.0364 124.084 9.97175C124.255 9.92652 124.514 9.88291 124.86 9.84091C125.564 9.75692 126.082 9.65677 126.415 9.54048C126.418 9.42095 126.42 9.34503 126.42 9.31273C126.42 8.95738 126.337 8.70702 126.173 8.56165C125.95 8.36459 125.619 8.26606 125.179 8.26606C124.769 8.26606 124.465 8.33874 124.268 8.48412C124.075 8.62626 123.931 8.87985 123.837 9.24489L122.984 9.12859C123.062 8.76355 123.189 8.46958 123.367 8.24668C123.545 8.02054 123.802 7.84771 124.138 7.72819C124.473 7.60543 124.863 7.54405 125.305 7.54405C125.745 7.54405 126.102 7.59574 126.376 7.69911C126.651 7.80249 126.853 7.93332 126.982 8.09161C127.111 8.24668 127.202 8.44373 127.253 8.68279C127.282 8.83139 127.297 9.09952 127.297 9.48717V10.6501C127.297 11.461 127.315 11.9746 127.35 12.1911C127.389 12.4043 127.463 12.6094 127.573 12.8065H126.662C126.572 12.6256 126.514 12.414 126.488 12.1717ZM126.415 10.2237C126.098 10.3529 125.624 10.4628 124.99 10.5532C124.632 10.6049 124.378 10.6631 124.23 10.7277C124.081 10.7923 123.966 10.8876 123.886 11.0136C123.805 11.1363 123.764 11.2736 123.764 11.4255C123.764 11.658 123.852 11.8519 124.026 12.0069C124.204 12.162 124.462 12.2395 124.801 12.2395C125.137 12.2395 125.436 12.1668 125.698 12.0215C125.96 11.8729 126.152 11.671 126.274 11.4158C126.368 11.2187 126.415 10.928 126.415 10.5435V10.2237Z" fill="#040A5C"/>
<path d="M128.654 12.8065V7.66035H129.439V8.39205C129.817 7.82672 130.363 7.54405 131.077 7.54405C131.387 7.54405 131.671 7.60058 131.929 7.71365C132.191 7.82349 132.387 7.96886 132.516 8.14976C132.645 8.33067 132.735 8.54549 132.787 8.79424C132.819 8.95576 132.836 9.23843 132.836 9.64224V12.8065H131.963V9.67616C131.963 9.32081 131.929 9.05591 131.862 8.88146C131.794 8.70379 131.673 8.56326 131.498 8.45989C131.327 8.35328 131.125 8.29998 130.892 8.29998C130.521 8.29998 130.199 8.41789 129.928 8.65372C129.66 8.88954 129.526 9.33696 129.526 9.99597V12.8065H128.654Z" fill="#040A5C"/>
<path d="M137.536 12.1717C137.213 12.4463 136.901 12.6401 136.601 12.7532C136.303 12.8662 135.984 12.9228 135.641 12.9228C135.076 12.9228 134.641 12.7855 134.338 12.5109C134.034 12.2331 133.882 11.8793 133.882 11.4497C133.882 11.1977 133.939 10.9683 134.052 10.7616C134.168 10.5516 134.318 10.3836 134.502 10.2576C134.69 10.1317 134.9 10.0364 135.132 9.97175C135.304 9.92652 135.562 9.88291 135.908 9.84091C136.612 9.75692 137.13 9.65677 137.463 9.54048C137.466 9.42095 137.468 9.34503 137.468 9.31273C137.468 8.95738 137.386 8.70702 137.221 8.56165C136.998 8.36459 136.667 8.26606 136.228 8.26606C135.817 8.26606 135.514 8.33874 135.317 8.48412C135.123 8.62626 134.979 8.87985 134.885 9.24489L134.032 9.12859C134.11 8.76355 134.238 8.46958 134.415 8.24668C134.593 8.02054 134.85 7.84771 135.186 7.72819C135.522 7.60543 135.911 7.54405 136.354 7.54405C136.793 7.54405 137.15 7.59574 137.424 7.69911C137.699 7.80249 137.901 7.93332 138.03 8.09161C138.159 8.24668 138.25 8.44373 138.301 8.68279C138.331 8.83139 138.345 9.09952 138.345 9.48717V10.6501C138.345 11.461 138.363 11.9746 138.398 12.1911C138.437 12.4043 138.511 12.6094 138.621 12.8065H137.71C137.62 12.6256 137.562 12.414 137.536 12.1717ZM137.463 10.2237C137.147 10.3529 136.672 10.4628 136.039 10.5532C135.68 10.6049 135.426 10.6631 135.278 10.7277C135.129 10.7923 135.014 10.8876 134.934 11.0136C134.853 11.1363 134.813 11.2736 134.813 11.4255C134.813 11.658 134.9 11.8519 135.074 12.0069C135.252 12.162 135.51 12.2395 135.85 12.2395C136.186 12.2395 136.484 12.1668 136.746 12.0215C137.008 11.8729 137.2 11.671 137.323 11.4158C137.416 11.2187 137.463 10.928 137.463 10.5435V10.2237Z" fill="#040A5C"/>
<path d="M145.803 12.8065V12.1572C145.476 12.6676 144.997 12.9228 144.363 12.9228C143.953 12.9228 143.575 12.8097 143.23 12.5836C142.887 12.3574 142.621 12.0425 142.43 11.6387C142.243 11.2316 142.149 10.7648 142.149 10.2383C142.149 9.72461 142.235 9.25943 142.406 8.8427C142.577 8.42274 142.834 8.10131 143.176 7.8784C143.519 7.6555 143.902 7.54405 144.325 7.54405C144.635 7.54405 144.911 7.61028 145.153 7.74272C145.396 7.87194 145.593 8.04154 145.744 8.25152V5.70269H146.612V12.8065H145.803ZM143.045 10.2383C143.045 10.8973 143.184 11.3899 143.462 11.7162C143.74 12.0425 144.068 12.2056 144.446 12.2056C144.827 12.2056 145.15 12.0505 145.415 11.7404C145.683 11.4271 145.817 10.9506 145.817 10.3109C145.817 9.6067 145.681 9.08983 145.41 8.76032C145.139 8.43081 144.804 8.26606 144.407 8.26606C144.019 8.26606 143.695 8.42435 143.433 8.74094C143.175 9.05752 143.045 9.55663 143.045 10.2383Z" fill="#040A5C"/>
<path d="M151.511 11.1492L152.412 11.2607C152.27 11.7873 152.007 12.1959 151.622 12.4867C151.238 12.7774 150.747 12.9228 150.149 12.9228C149.397 12.9228 148.799 12.6918 148.356 12.2298C147.917 11.7647 147.697 11.1137 147.697 10.277C147.697 9.41126 147.92 8.73932 148.366 8.26121C148.812 7.7831 149.39 7.54405 150.101 7.54405C150.789 7.54405 151.351 7.77826 151.787 8.24668C152.223 8.71509 152.441 9.37411 152.441 10.2237C152.441 10.2754 152.44 10.3529 152.436 10.4563H148.599C148.631 11.0216 148.791 11.4545 149.078 11.755C149.366 12.0554 149.724 12.2056 150.154 12.2056C150.474 12.2056 150.747 12.1216 150.973 11.9536C151.199 11.7857 151.378 11.5175 151.511 11.1492ZM148.647 9.73915H151.521C151.482 9.30627 151.372 8.98161 151.191 8.76517C150.913 8.4292 150.553 8.26121 150.11 8.26121C149.71 8.26121 149.372 8.39528 149.098 8.66341C148.826 8.93154 148.676 9.29012 148.647 9.73915Z" fill="#040A5C"/>
<path d="M156.323 12.8065V5.70269H158.469L159.758 10.5484L161.033 5.70269H163.184V12.8065H161.852V7.21454L160.441 12.8065H159.06L157.655 7.21454V12.8065H156.323Z" fill="#040A5C"/>
<path d="M167.579 11.1686L168.936 11.3964C168.762 11.8939 168.485 12.2735 168.107 12.5351C167.733 12.7936 167.263 12.9228 166.697 12.9228C165.802 12.9228 165.14 12.6304 164.711 12.0457C164.371 11.5773 164.202 10.9861 164.202 10.2722C164.202 9.41934 164.425 8.75224 164.87 8.27091C165.316 7.78634 165.88 7.54405 166.562 7.54405C167.327 7.54405 167.931 7.79764 168.374 8.30483C168.816 8.80878 169.028 9.58247 169.009 10.6259H165.597C165.607 11.0297 165.717 11.3447 165.927 11.5708C166.137 11.7937 166.398 11.9052 166.712 11.9052C166.925 11.9052 167.104 11.847 167.25 11.7307C167.395 11.6144 167.505 11.4271 167.579 11.1686ZM167.657 9.79245C167.647 9.39834 167.545 9.09952 167.351 8.896C167.158 8.68925 166.922 8.58588 166.644 8.58588C166.347 8.58588 166.101 8.6941 165.907 8.91054C165.714 9.12698 165.618 9.42095 165.622 9.79245H167.657Z" fill="#040A5C"/>
<path d="M174.843 12.8065H173.578V12.0505C173.368 12.3445 173.119 12.5642 172.832 12.7096C172.548 12.8517 172.26 12.9228 171.969 12.9228C171.378 12.9228 170.871 12.6853 170.448 12.2105C170.028 11.7323 169.818 11.0669 169.818 10.214C169.818 9.3418 170.023 8.67956 170.433 8.22729C170.844 7.7718 171.362 7.54405 171.989 7.54405C172.564 7.54405 173.061 7.7831 173.481 8.26121V5.70269H174.843V12.8065ZM171.209 10.122C171.209 10.6711 171.285 11.0685 171.436 11.314C171.656 11.6694 171.963 11.847 172.357 11.847C172.67 11.847 172.937 11.7146 173.157 11.4497C173.376 11.1816 173.486 10.7826 173.486 10.2528C173.486 9.66162 173.38 9.23681 173.166 8.97838C172.953 8.71671 172.68 8.58588 172.347 8.58588C172.024 8.58588 171.753 8.71509 171.533 8.97353C171.317 9.22874 171.209 9.61155 171.209 10.122Z" fill="#040A5C"/>
<path d="M176.19 6.96257V5.70269H177.552V6.96257H176.19ZM176.19 12.8065V7.66035H177.552V12.8065H176.19Z" fill="#040A5C"/>
<path d="M183.439 9.1819L182.097 9.42418C182.052 9.15605 181.948 8.95415 181.787 8.81847C181.628 8.68279 181.422 8.61495 181.167 8.61495C180.827 8.61495 180.556 8.73286 180.352 8.96869C180.152 9.20128 180.052 9.59217 180.052 10.1413C180.052 10.7519 180.154 11.1832 180.357 11.4351C180.564 11.6871 180.84 11.8131 181.186 11.8131C181.444 11.8131 181.656 11.7404 181.821 11.5951C181.985 11.4465 182.102 11.1929 182.17 10.8343L183.507 11.062C183.368 11.6758 183.102 12.1394 182.707 12.4527C182.313 12.7661 181.785 12.9228 181.123 12.9228C180.37 12.9228 179.769 12.6853 179.32 12.2105C178.875 11.7356 178.652 11.0782 178.652 10.2383C178.652 9.38865 178.876 8.72802 179.325 8.25637C179.774 7.78149 180.382 7.54405 181.147 7.54405C181.774 7.54405 182.271 7.67973 182.64 7.95109C183.011 8.21922 183.278 8.62949 183.439 9.1819Z" fill="#040A5C"/>
<path d="M184.476 6.96257V5.70269H185.838V6.96257H184.476ZM184.476 12.8065V7.66035H185.838V12.8065H184.476Z" fill="#040A5C"/>
<path d="M191.919 12.8065H190.557V10.1801C190.557 9.62447 190.528 9.26589 190.47 9.10437C190.412 8.93961 190.317 8.81201 190.184 8.72155C190.055 8.6311 189.898 8.58588 189.714 8.58588C189.479 8.58588 189.267 8.65048 189.08 8.7797C188.892 8.90892 188.763 9.08014 188.692 9.29335C188.624 9.50656 188.59 9.90067 188.59 10.4757V12.8065H187.229V7.66035H188.493V8.41628C188.942 7.83479 189.508 7.54405 190.189 7.54405C190.49 7.54405 190.764 7.59897 191.013 7.7088C191.262 7.81541 191.449 7.9527 191.575 8.12069C191.704 8.28867 191.793 8.47927 191.842 8.69248C191.893 8.90569 191.919 9.21097 191.919 9.60832V12.8065Z" fill="#040A5C"/>
<path d="M194.323 9.23035L193.087 9.00745C193.226 8.50996 193.465 8.14169 193.804 7.90263C194.143 7.66358 194.647 7.54405 195.316 7.54405C195.923 7.54405 196.376 7.61674 196.673 7.76211C196.97 7.90425 197.178 8.08677 197.298 8.30967C197.421 8.52934 197.482 8.93477 197.482 9.52594L197.467 11.1153C197.467 11.5676 197.488 11.9019 197.53 12.1184C197.576 12.3316 197.658 12.561 197.778 12.8065H196.43C196.395 12.716 196.351 12.582 196.3 12.4043C196.277 12.3235 196.261 12.2702 196.251 12.2444C196.019 12.4705 195.77 12.6401 195.505 12.7532C195.24 12.8662 194.957 12.9228 194.657 12.9228C194.127 12.9228 193.709 12.779 193.402 12.4915C193.098 12.204 192.946 11.8406 192.946 11.4012C192.946 11.1105 193.016 10.852 193.155 10.6259C193.294 10.3966 193.488 10.2221 193.736 10.1026C193.988 9.97982 194.35 9.87322 194.822 9.78276C195.458 9.66324 195.899 9.55178 196.145 9.44841V9.31273C196.145 9.05106 196.08 8.86531 195.951 8.75547C195.822 8.64241 195.578 8.58588 195.219 8.58588C194.977 8.58588 194.788 8.63433 194.652 8.73125C194.516 8.82493 194.407 8.9913 194.323 9.23035ZM196.145 10.3352C195.97 10.3933 195.694 10.4628 195.316 10.5435C194.938 10.6243 194.691 10.7034 194.575 10.781C194.397 10.907 194.308 11.0669 194.308 11.2607C194.308 11.4513 194.379 11.6161 194.521 11.755C194.663 11.8939 194.844 11.9633 195.064 11.9633C195.31 11.9633 195.544 11.8826 195.767 11.721C195.931 11.5983 196.04 11.4481 196.091 11.2704C196.127 11.1541 196.145 10.9328 196.145 10.6065V10.3352Z" fill="#040A5C"/>
<path d="M40.5299 21.6235L41.9206 22.0645C41.7074 22.8398 41.352 23.4164 40.8545 23.7944C40.3603 24.1691 39.7319 24.3565 38.9695 24.3565C38.0262 24.3565 37.2509 24.035 36.6436 23.3922C36.0363 22.7461 35.7326 21.8642 35.7326 20.7464C35.7326 19.5641 36.0379 18.6466 36.6485 17.9941C37.259 17.3383 38.0618 17.0104 39.0568 17.0104C39.9258 17.0104 40.6316 17.2672 41.1743 17.7809C41.4974 18.0845 41.7397 18.5206 41.9012 19.0892L40.4814 19.4284C40.3974 19.0601 40.2213 18.7694 39.9532 18.5562C39.6883 18.343 39.3653 18.2364 38.9841 18.2364C38.4575 18.2364 38.0295 18.4253 37.7 18.8033C37.3737 19.1813 37.2106 19.7934 37.2106 20.6398C37.2106 21.5379 37.3721 22.1775 37.6951 22.5587C38.0182 22.9399 38.4381 23.1305 38.955 23.1305C39.3362 23.1305 39.6641 23.0094 39.9387 22.7671C40.2133 22.5248 40.4103 22.1436 40.5299 21.6235Z" fill="#040A5C"/>
<path d="M44.45 24.2353H43.0884V19.0892H44.3531V19.8209C44.5696 19.4752 44.7634 19.2475 44.9346 19.1377C45.109 19.0278 45.3061 18.9729 45.5258 18.9729C45.8359 18.9729 46.1347 19.0585 46.4222 19.2297L46.0006 20.4169C45.7713 20.2683 45.5581 20.194 45.361 20.194C45.1704 20.194 45.0089 20.2473 44.8764 20.3539C44.744 20.4573 44.639 20.6463 44.5615 20.9209C44.4872 21.1955 44.45 21.7705 44.45 22.6459V24.2353Z" fill="#040A5C"/>
<path d="M47.0134 24.2353V19.0892H48.375V24.2353H47.0134ZM46.9116 18.4593L47.5803 17.0104H49.1067L47.7742 18.4593H46.9116Z" fill="#040A5C"/>
<path d="M52.1353 19.0892V20.1746H51.2049V22.2486C51.2049 22.6686 51.213 22.9141 51.2292 22.9851C51.2485 23.053 51.2889 23.1095 51.3503 23.1547C51.4149 23.2 51.4924 23.2226 51.5829 23.2226C51.7089 23.2226 51.8914 23.179 52.1305 23.0917L52.2468 24.1481C51.9302 24.2838 51.5716 24.3516 51.171 24.3516C50.9255 24.3516 50.7042 24.3112 50.5071 24.2305C50.3101 24.1465 50.1647 24.0399 50.071 23.9107C49.9806 23.7782 49.9176 23.6005 49.8821 23.3776C49.853 23.2194 49.8384 22.8995 49.8384 22.4182V20.1746H49.2133V19.0892H49.8384V18.0668L51.2049 17.2721V19.0892H52.1353Z" fill="#040A5C"/>
<path d="M53.0802 18.3914V17.1315H54.4419V18.3914H53.0802ZM53.0802 24.2353V19.0892H54.4419V24.2353H53.0802Z" fill="#040A5C"/>
<path d="M60.3294 20.6108L58.9871 20.853C58.9419 20.5849 58.8385 20.383 58.677 20.2473C58.5187 20.1116 58.312 20.0438 58.0567 20.0438C57.7175 20.0438 57.4462 20.1617 57.2427 20.3975C57.0424 20.6301 56.9422 21.021 56.9422 21.5702C56.9422 22.1808 57.044 22.612 57.2475 22.864C57.4543 23.116 57.7305 23.242 58.0761 23.242C58.3346 23.242 58.5462 23.1693 58.7109 23.0239C58.8757 22.8753 58.992 22.6217 59.0598 22.2631L60.3972 22.4909C60.2583 23.1047 59.9918 23.5682 59.5977 23.8816C59.2036 24.195 58.6754 24.3516 58.0131 24.3516C57.2604 24.3516 56.6596 24.1142 56.2105 23.6393C55.7647 23.1644 55.5418 22.507 55.5418 21.6671C55.5418 20.8175 55.7663 20.1569 56.2154 19.6852C56.6644 19.2103 57.2717 18.9729 58.0374 18.9729C58.6641 18.9729 59.1616 19.1086 59.5298 19.3799C59.9013 19.6481 60.1679 20.0583 60.3294 20.6108Z" fill="#040A5C"/>
<path d="M62.384 20.6592L61.1483 20.4363C61.2872 19.9388 61.5263 19.5705 61.8655 19.3315C62.2047 19.0924 62.7086 18.9729 63.3773 18.9729C63.9846 18.9729 64.4369 19.0456 64.7341 19.191C65.0313 19.3331 65.2397 19.5156 65.3592 19.7385C65.482 19.9582 65.5434 20.3636 65.5434 20.9548L65.5288 22.5442C65.5288 22.9964 65.5498 23.3308 65.5918 23.5472C65.637 23.7605 65.7194 23.9898 65.8389 24.2353H64.4918C64.4563 24.1449 64.4127 24.0108 64.361 23.8331C64.3384 23.7524 64.3222 23.6991 64.3125 23.6732C64.08 23.8994 63.8312 24.069 63.5663 24.182C63.3014 24.2951 63.0187 24.3516 62.7183 24.3516C62.1885 24.3516 61.7702 24.2079 61.4633 23.9204C61.1596 23.6329 61.0078 23.2694 61.0078 22.8301C61.0078 22.5393 61.0772 22.2809 61.2161 22.0548C61.3551 21.8254 61.5489 21.651 61.7976 21.5314C62.0496 21.4087 62.4114 21.3021 62.8831 21.2116C63.5195 21.0921 63.9604 20.9806 64.2059 20.8773V20.7416C64.2059 20.4799 64.1413 20.2942 64.0121 20.1843C63.8829 20.0713 63.639 20.0147 63.2804 20.0147C63.0381 20.0147 62.8491 20.0632 62.7135 20.1601C62.5778 20.2538 62.4679 20.4202 62.384 20.6592ZM64.2059 21.764C64.0315 21.8222 63.7553 21.8916 63.3773 21.9724C62.9994 22.0532 62.7522 22.1323 62.6359 22.2098C62.4583 22.3358 62.3694 22.4957 62.3694 22.6896C62.3694 22.8802 62.4405 23.0449 62.5826 23.1838C62.7248 23.3227 62.9057 23.3922 63.1253 23.3922C63.3709 23.3922 63.6051 23.3114 63.828 23.1499C63.9927 23.0271 64.1009 22.8769 64.1526 22.6992C64.1882 22.583 64.2059 22.3617 64.2059 22.0354V21.764Z" fill="#040A5C"/>
<path d="M69.008 19.0892H70.4569L71.6877 22.7429L72.8894 19.0892H74.2995L72.4824 24.0415L72.1577 24.938C72.0382 25.2384 71.9235 25.4678 71.8137 25.626C71.7071 25.7843 71.5827 25.9119 71.4406 26.0089C71.3017 26.109 71.1288 26.1865 70.9221 26.2415C70.7186 26.2964 70.4876 26.3238 70.2291 26.3238C69.9675 26.3238 69.7106 26.2964 69.4587 26.2415L69.3375 25.1754C69.5507 25.2174 69.743 25.2384 69.9142 25.2384C70.2308 25.2384 70.465 25.1447 70.6168 24.9573C70.7686 24.7732 70.8849 24.5374 70.9657 24.2499L69.008 19.0892Z" fill="#040A5C"/>
<path d="M82.4936 21.6235L83.8843 22.0645C83.6711 22.8398 83.3158 23.4164 82.8183 23.7944C82.324 24.1691 81.6957 24.3565 80.9333 24.3565C79.99 24.3565 79.2147 24.035 78.6073 23.3922C78 22.7461 77.6964 21.8642 77.6964 20.7464C77.6964 19.5641 78.0016 18.6466 78.6122 17.9941C79.2228 17.3383 80.0255 17.0104 81.0205 17.0104C81.8895 17.0104 82.5954 17.2672 83.1381 17.7809C83.4611 18.0845 83.7034 18.5206 83.8649 19.0892L82.4451 19.4284C82.3611 19.0601 82.1851 18.7694 81.917 18.5562C81.6521 18.343 81.329 18.2364 80.9478 18.2364C80.4213 18.2364 79.9932 18.4253 79.6637 18.8033C79.3374 19.1813 79.1743 19.7934 79.1743 20.6398C79.1743 21.5379 79.3358 22.1775 79.6589 22.5587C79.9819 22.9399 80.4019 23.1305 80.9187 23.1305C81.2999 23.1305 81.6278 23.0094 81.9024 22.7671C82.177 22.5248 82.3741 22.1436 82.4936 21.6235Z" fill="#040A5C"/>
<path d="M88.4974 24.2353V23.4649C88.3101 23.7395 88.0629 23.9559 87.756 24.1142C87.4524 24.2725 87.1309 24.3516 86.7917 24.3516C86.4461 24.3516 86.1359 24.2757 85.8614 24.1239C85.5868 23.972 85.3881 23.7588 85.2653 23.4842C85.1426 23.2097 85.0812 22.8301 85.0812 22.3455V19.0892H86.4428V21.4539C86.4428 22.1775 86.4671 22.6217 86.5155 22.7865C86.5672 22.948 86.6593 23.0772 86.7917 23.1741C86.9242 23.2678 87.0922 23.3147 87.2957 23.3147C87.5283 23.3147 87.7366 23.2517 87.9208 23.1257C88.1049 22.9965 88.2309 22.8382 88.2987 22.6508C88.3666 22.4602 88.4005 21.9966 88.4005 21.2601V19.0892H89.7621V24.2353H88.4974Z" fill="#040A5C"/>
<path d="M91.1771 18.3914V17.1315H92.5387V18.3914H91.1771ZM91.1771 24.2353V19.0892H92.5387V24.2353H91.1771Z" fill="#040A5C"/>
<path d="M98.6588 24.2353H97.3941V23.4794C97.1841 23.7734 96.9354 23.993 96.6479 24.1384C96.3636 24.2806 96.0761 24.3516 95.7854 24.3516C95.1942 24.3516 94.687 24.1142 94.2638 23.6393C93.8438 23.1612 93.6339 22.4957 93.6339 21.6429C93.6339 20.7707 93.839 20.1084 94.2493 19.6561C94.6595 19.2007 95.178 18.9729 95.8047 18.9729C96.3798 18.9729 96.8772 19.212 97.2972 19.6901V17.1315H98.6588V24.2353ZM95.0246 21.5508C95.0246 22.1 95.1005 22.4973 95.2523 22.7429C95.472 23.0982 95.7789 23.2759 96.173 23.2759C96.4864 23.2759 96.7529 23.1434 96.9725 22.8785C97.1922 22.6104 97.3021 22.2114 97.3021 21.6817C97.3021 21.0905 97.1954 20.6657 96.9822 20.4072C96.769 20.1456 96.4961 20.0147 96.1633 20.0147C95.8403 20.0147 95.5689 20.1439 95.3492 20.4024C95.1328 20.6576 95.0246 21.0404 95.0246 21.5508Z" fill="#040A5C"/>
<path d="M101.024 20.6592L99.7879 20.4363C99.9268 19.9388 100.166 19.5705 100.505 19.3315C100.844 19.0924 101.348 18.9729 102.017 18.9729C102.624 18.9729 103.077 19.0456 103.374 19.191C103.671 19.3331 103.879 19.5156 103.999 19.7385C104.122 19.9582 104.183 20.3636 104.183 20.9548L104.168 22.5442C104.168 22.9964 104.189 23.3308 104.231 23.5472C104.277 23.7605 104.359 23.9898 104.479 24.2353H103.131C103.096 24.1449 103.052 24.0108 103.001 23.8331C102.978 23.7524 102.962 23.6991 102.952 23.6732C102.72 23.8994 102.471 24.069 102.206 24.182C101.941 24.2951 101.658 24.3516 101.358 24.3516C100.828 24.3516 100.41 24.2079 100.103 23.9204C99.7992 23.6329 99.6474 23.2694 99.6474 22.8301C99.6474 22.5393 99.7168 22.2809 99.8557 22.0548C99.9946 21.8254 100.188 21.651 100.437 21.5314C100.689 21.4087 101.051 21.3021 101.523 21.2116C102.159 21.0921 102.6 20.9806 102.846 20.8773V20.7416C102.846 20.4799 102.781 20.2942 102.652 20.1843C102.522 20.0713 102.279 20.0147 101.92 20.0147C101.678 20.0147 101.489 20.0632 101.353 20.1601C101.217 20.2538 101.108 20.4202 101.024 20.6592ZM102.846 21.764C102.671 21.8222 102.395 21.8916 102.017 21.9724C101.639 22.0532 101.392 22.1323 101.276 22.2098C101.098 22.3358 101.009 22.4957 101.009 22.6896C101.009 22.8802 101.08 23.0449 101.222 23.1838C101.364 23.3227 101.545 23.3922 101.765 23.3922C102.01 23.3922 102.245 23.3114 102.468 23.1499C102.632 23.0271 102.741 22.8769 102.792 22.6992C102.828 22.583 102.846 22.3617 102.846 22.0354V21.764Z" fill="#040A5C"/>
<path d="M110.25 24.2353H108.985V23.4794C108.775 23.7734 108.526 23.993 108.239 24.1384C107.955 24.2806 107.667 24.3516 107.376 24.3516C106.785 24.3516 106.278 24.1142 105.855 23.6393C105.435 23.1612 105.225 22.4957 105.225 21.6429C105.225 20.7707 105.43 20.1084 105.84 19.6561C106.25 19.2007 106.769 18.9729 107.396 18.9729C107.971 18.9729 108.468 19.212 108.888 19.6901V17.1315H110.25V24.2353ZM106.615 21.5508C106.615 22.1 106.691 22.4973 106.843 22.7429C107.063 23.0982 107.37 23.2759 107.764 23.2759C108.077 23.2759 108.344 23.1434 108.563 22.8785C108.783 22.6104 108.893 22.2114 108.893 21.6817C108.893 21.0905 108.786 20.6657 108.573 20.4072C108.36 20.1456 108.087 20.0147 107.754 20.0147C107.431 20.0147 107.16 20.1439 106.94 20.4024C106.724 20.6576 106.615 21.0404 106.615 21.5508Z" fill="#040A5C"/>
<path d="M111.282 21.5896C111.282 21.1373 111.393 20.6996 111.616 20.2764C111.839 19.8532 112.154 19.5302 112.561 19.3073C112.971 19.0844 113.429 18.9729 113.932 18.9729C114.711 18.9729 115.349 19.2265 115.847 19.7337C116.344 20.2376 116.593 20.8756 116.593 21.6477C116.593 22.4263 116.341 23.0724 115.837 23.586C115.336 24.0964 114.705 24.3516 113.942 24.3516C113.471 24.3516 113.02 24.245 112.59 24.0318C112.164 23.8186 111.839 23.5069 111.616 23.0966C111.393 22.6831 111.282 22.1808 111.282 21.5896ZM112.677 21.6623C112.677 22.1727 112.799 22.5636 113.041 22.8349C113.283 23.1063 113.582 23.242 113.937 23.242C114.293 23.242 114.59 23.1063 114.829 22.8349C115.071 22.5636 115.192 22.1695 115.192 21.6526C115.192 21.1486 115.071 20.761 114.829 20.4896C114.59 20.2182 114.293 20.0826 113.937 20.0826C113.582 20.0826 113.283 20.2182 113.041 20.4896C112.799 20.761 112.677 21.1519 112.677 21.6623Z" fill="#040A5C"/>
<path d="M120.392 24.2353V17.1315H121.826V24.2353H120.392Z" fill="#040A5C"/>
<path d="M127.869 24.2353H126.507V21.609C126.507 21.0533 126.478 20.6947 126.42 20.5332C126.362 20.3685 126.266 20.2409 126.134 20.1504C126.005 20.06 125.848 20.0147 125.664 20.0147C125.428 20.0147 125.216 20.0793 125.029 20.2086C124.842 20.3378 124.713 20.509 124.641 20.7222C124.574 20.9354 124.54 21.3295 124.54 21.9046V24.2353H123.178V19.0892H124.443V19.8451C124.892 19.2636 125.457 18.9729 126.139 18.9729C126.439 18.9729 126.714 19.0278 126.963 19.1377C127.211 19.2443 127.399 19.3816 127.525 19.5495C127.654 19.7175 127.743 19.9081 127.791 20.1213C127.843 20.3345 127.869 20.6398 127.869 21.0372V24.2353Z" fill="#040A5C"/>
<path d="M131.614 19.0892V20.1746H130.684V22.2486C130.684 22.6686 130.692 22.9141 130.708 22.9851C130.728 23.053 130.768 23.1095 130.829 23.1547C130.894 23.2 130.972 23.2226 131.062 23.2226C131.188 23.2226 131.371 23.179 131.61 23.0917L131.726 24.1481C131.409 24.2838 131.051 24.3516 130.65 24.3516C130.405 24.3516 130.183 24.3112 129.986 24.2305C129.789 24.1465 129.644 24.0399 129.55 23.9107C129.46 23.7782 129.397 23.6005 129.361 23.3776C129.332 23.2194 129.318 22.8995 129.318 22.4182V20.1746H128.692V19.0892H129.318V18.0668L130.684 17.2721V19.0892H131.614Z" fill="#040A5C"/>
<path d="M135.539 22.5975L136.896 22.8252C136.722 23.3227 136.446 23.7023 136.068 23.964C135.693 24.2224 135.223 24.3516 134.658 24.3516C133.763 24.3516 133.1 24.0593 132.671 23.4746C132.332 23.0061 132.162 22.415 132.162 21.701C132.162 20.8482 132.385 20.1811 132.831 19.6998C133.277 19.2152 133.84 18.9729 134.522 18.9729C135.287 18.9729 135.892 19.2265 136.334 19.7337C136.777 20.2376 136.988 21.0113 136.969 22.0548H133.558C133.567 22.4586 133.677 22.7735 133.887 22.9997C134.097 23.2226 134.359 23.334 134.672 23.334C134.885 23.334 135.065 23.2759 135.21 23.1596C135.355 23.0433 135.465 22.8559 135.539 22.5975ZM135.617 21.2213C135.607 20.8272 135.506 20.5284 135.312 20.3249C135.118 20.1181 134.882 20.0147 134.604 20.0147C134.307 20.0147 134.062 20.123 133.868 20.3394C133.674 20.5558 133.579 20.8498 133.582 21.2213H135.617Z" fill="#040A5C"/>
<path d="M142.764 24.2353H141.403V21.609C141.403 21.0533 141.374 20.6947 141.316 20.5332C141.257 20.3685 141.162 20.2409 141.03 20.1504C140.9 20.06 140.744 20.0147 140.56 20.0147C140.324 20.0147 140.112 20.0793 139.925 20.2086C139.737 20.3378 139.608 20.509 139.537 20.7222C139.469 20.9354 139.435 21.3295 139.435 21.9046V24.2353H138.074V19.0892H139.338V19.8451C139.788 19.2636 140.353 18.9729 141.034 18.9729C141.335 18.9729 141.609 19.0278 141.858 19.1377C142.107 19.2443 142.294 19.3816 142.42 19.5495C142.55 19.7175 142.638 19.9081 142.687 20.1213C142.739 20.3345 142.764 20.6398 142.764 21.0372V24.2353Z" fill="#040A5C"/>
<path d="M143.671 22.7671L145.037 22.5587C145.095 22.8236 145.213 23.0255 145.391 23.1644C145.568 23.3001 145.817 23.368 146.137 23.368C146.489 23.368 146.754 23.3033 146.932 23.1741C147.051 23.0837 147.111 22.9625 147.111 22.8107C147.111 22.7073 147.079 22.6217 147.014 22.5539C146.946 22.4893 146.794 22.4295 146.559 22.3746C145.46 22.1323 144.764 21.911 144.47 21.7107C144.063 21.4329 143.86 21.0469 143.86 20.5526C143.86 20.1068 144.036 19.7321 144.388 19.4284C144.74 19.1247 145.286 18.9729 146.026 18.9729C146.73 18.9729 147.253 19.0876 147.596 19.317C147.938 19.5463 148.174 19.8855 148.303 20.3345L147.019 20.572C146.964 20.3717 146.859 20.2182 146.704 20.1116C146.552 20.005 146.334 19.9517 146.05 19.9517C145.691 19.9517 145.434 20.0018 145.279 20.102C145.176 20.173 145.124 20.2651 145.124 20.3782C145.124 20.4751 145.169 20.5574 145.26 20.6253C145.383 20.7157 145.806 20.8433 146.529 21.0081C147.256 21.1729 147.764 21.3748 148.051 21.6138C148.335 21.8561 148.477 22.1937 148.477 22.6266C148.477 23.0982 148.28 23.5036 147.886 23.8428C147.492 24.182 146.909 24.3516 146.137 24.3516C145.436 24.3516 144.88 24.2095 144.47 23.9252C144.063 23.6409 143.797 23.2549 143.671 22.7671Z" fill="#040A5C"/>
<path d="M149.674 18.3914V17.1315H151.036V18.3914H149.674ZM149.674 24.2353V19.0892H151.036V24.2353H149.674Z" fill="#040A5C"/>
<path d="M153.851 24.2353L151.777 19.0892H153.207L154.176 21.7156L154.457 22.5926C154.531 22.3697 154.578 22.2228 154.598 22.1517C154.643 22.0063 154.691 21.8609 154.743 21.7156L155.722 19.0892H157.122L155.077 24.2353H153.851Z" fill="#040A5C"/>
<path d="M157.646 21.5896C157.646 21.1373 157.757 20.6996 157.98 20.2764C158.203 19.8532 158.518 19.5302 158.925 19.3073C159.335 19.0844 159.792 18.9729 160.296 18.9729C161.075 18.9729 161.713 19.2265 162.21 19.7337C162.708 20.2376 162.956 20.8756 162.956 21.6477C162.956 22.4263 162.704 23.0724 162.2 23.586C161.7 24.0964 161.068 24.3516 160.306 24.3516C159.834 24.3516 159.384 24.245 158.954 24.0318C158.527 23.8186 158.203 23.5069 157.98 23.0966C157.757 22.6831 157.646 22.1808 157.646 21.5896ZM159.041 21.6623C159.041 22.1727 159.162 22.5636 159.405 22.8349C159.647 23.1063 159.946 23.242 160.301 23.242C160.656 23.242 160.954 23.1063 161.193 22.8349C161.435 22.5636 161.556 22.1695 161.556 21.6526C161.556 21.1486 161.435 20.761 161.193 20.4896C160.954 20.2182 160.656 20.0826 160.301 20.0826C159.946 20.0826 159.647 20.2182 159.405 20.4896C159.162 20.761 159.041 21.1519 159.041 21.6623Z" fill="#040A5C"/>
</svg>
