<?xml version="1.0" encoding="utf-8"?>
<!-- Generator: Adobe Illustrator 27.1.1, SVG Export Plug-In . SVG Version: 6.00 Build 0)  -->
<svg version="1.1" id="Capa_1" xmlns="http://www.w3.org/2000/svg" xmlns:xlink="http://www.w3.org/1999/xlink" x="0px" y="0px"
	 viewBox="0 0 198 30" style="enable-background:new 0 0 198 30;" xml:space="preserve">
<style type="text/css">
	.st0{fill:#FFFFFF;}
</style>
<path class="st0" d="M35.2,12.8L38,5.7h1l2.9,7.1h-1.1L40,10.7h-3l-0.8,2.2H35.2z M37.3,9.9h2.4l-0.7-2c-0.2-0.6-0.4-1.1-0.5-1.5
	c-0.1,0.5-0.2,0.9-0.4,1.4L37.3,9.9z"/>
<path class="st0" d="M42.2,11.3l0.9-0.1c0,0.3,0.2,0.6,0.4,0.8c0.2,0.2,0.5,0.3,0.9,0.3c0.4,0,0.7-0.1,0.9-0.2
	c0.2-0.2,0.3-0.4,0.3-0.6c0-0.2-0.1-0.4-0.3-0.5c-0.1-0.1-0.4-0.2-0.9-0.3c-0.6-0.2-1.1-0.3-1.3-0.4c-0.2-0.1-0.4-0.3-0.6-0.5
	c-0.1-0.2-0.2-0.4-0.2-0.7c0-0.2,0.1-0.4,0.2-0.6c0.1-0.2,0.3-0.4,0.4-0.5c0.1-0.1,0.3-0.2,0.6-0.3c0.2-0.1,0.5-0.1,0.8-0.1
	c0.4,0,0.8,0.1,1.1,0.2C45.6,7.8,45.8,8,46,8.2c0.1,0.2,0.2,0.5,0.3,0.8l-0.9,0.1c0-0.3-0.2-0.5-0.3-0.6c-0.2-0.1-0.4-0.2-0.8-0.2
	c-0.4,0-0.7,0.1-0.9,0.2s-0.3,0.3-0.3,0.5c0,0.1,0,0.2,0.1,0.3c0.1,0.1,0.2,0.2,0.3,0.2c0.1,0,0.3,0.1,0.8,0.2
	c0.6,0.2,1,0.3,1.3,0.4c0.2,0.1,0.4,0.3,0.6,0.5c0.1,0.2,0.2,0.4,0.2,0.7c0,0.3-0.1,0.6-0.3,0.8c-0.2,0.3-0.4,0.5-0.7,0.6
	c-0.3,0.1-0.7,0.2-1.1,0.2c-0.7,0-1.2-0.1-1.5-0.4C42.5,12.2,42.3,11.8,42.2,11.3z"/>
<path class="st0" d="M47.2,10.2c0-1,0.3-1.7,0.8-2.1c0.4-0.4,1-0.6,1.6-0.6c0.7,0,1.3,0.2,1.7,0.7c0.4,0.5,0.7,1.1,0.7,1.9
	c0,0.7-0.1,1.2-0.3,1.6c-0.2,0.4-0.5,0.7-0.9,0.9c-0.4,0.2-0.8,0.3-1.2,0.3c-0.7,0-1.3-0.2-1.7-0.7C47.4,11.8,47.2,11.1,47.2,10.2z
	 M48.1,10.2c0,0.7,0.1,1.2,0.4,1.5c0.3,0.3,0.6,0.5,1.1,0.5c0.4,0,0.8-0.2,1.1-0.5c0.3-0.3,0.4-0.8,0.4-1.5c0-0.6-0.1-1.1-0.4-1.4
	c-0.3-0.3-0.6-0.5-1.1-0.5c-0.4,0-0.8,0.2-1.1,0.5C48.2,9.1,48.1,9.6,48.1,10.2z"/>
<path class="st0" d="M56.4,10.9l0.9,0.1c-0.1,0.6-0.3,1.1-0.7,1.4c-0.4,0.3-0.9,0.5-1.4,0.5c-0.7,0-1.3-0.2-1.7-0.7
	c-0.4-0.5-0.6-1.1-0.6-2c0-0.6,0.1-1,0.3-1.5c0.2-0.4,0.5-0.7,0.8-0.9c0.4-0.2,0.8-0.3,1.2-0.3c0.6,0,1,0.1,1.4,0.4
	c0.4,0.3,0.6,0.7,0.7,1.2l-0.8,0.1c-0.1-0.3-0.2-0.6-0.4-0.8c-0.2-0.2-0.5-0.3-0.7-0.3c-0.4,0-0.8,0.2-1.1,0.5
	c-0.3,0.3-0.4,0.8-0.4,1.5c0,0.7,0.1,1.2,0.4,1.5c0.3,0.3,0.6,0.5,1,0.5c0.3,0,0.6-0.1,0.9-0.3C56.2,11.7,56.3,11.4,56.4,10.9z"/>
<path class="st0" d="M58,6.7v-1h0.9v1H58z M58,12.8V7.7h0.9v5.1H58z"/>
<path class="st0" d="M63.6,12.2c-0.3,0.3-0.6,0.5-0.9,0.6c-0.3,0.1-0.6,0.2-1,0.2c-0.6,0-1-0.1-1.3-0.4c-0.3-0.3-0.5-0.6-0.5-1.1
	c0-0.3,0.1-0.5,0.2-0.7c0.1-0.2,0.3-0.4,0.5-0.5c0.2-0.1,0.4-0.2,0.6-0.3c0.2,0,0.4-0.1,0.8-0.1c0.7-0.1,1.2-0.2,1.6-0.3
	c0-0.1,0-0.2,0-0.2c0-0.4-0.1-0.6-0.2-0.8c-0.2-0.2-0.6-0.3-1-0.3c-0.4,0-0.7,0.1-0.9,0.2c-0.2,0.1-0.3,0.4-0.4,0.8L60,9.1
	c0.1-0.4,0.2-0.7,0.4-0.9c0.2-0.2,0.4-0.4,0.8-0.5c0.3-0.1,0.7-0.2,1.2-0.2c0.4,0,0.8,0.1,1.1,0.2c0.3,0.1,0.5,0.2,0.6,0.4
	c0.1,0.2,0.2,0.4,0.3,0.6c0,0.1,0,0.4,0,0.8v1.2c0,0.8,0,1.3,0.1,1.5c0,0.2,0.1,0.4,0.2,0.6h-0.9C63.6,12.6,63.6,12.4,63.6,12.2z
	 M63.5,10.2c-0.3,0.1-0.8,0.2-1.4,0.3c-0.4,0.1-0.6,0.1-0.8,0.2c-0.1,0.1-0.3,0.2-0.3,0.3c-0.1,0.1-0.1,0.3-0.1,0.4
	c0,0.2,0.1,0.4,0.3,0.6c0.2,0.2,0.4,0.2,0.8,0.2c0.3,0,0.6-0.1,0.9-0.2c0.3-0.1,0.5-0.4,0.6-0.6c0.1-0.2,0.1-0.5,0.1-0.9V10.2z"/>
<path class="st0" d="M69.1,10.9l0.9,0.1c-0.1,0.6-0.3,1.1-0.7,1.4c-0.4,0.3-0.9,0.5-1.4,0.5c-0.7,0-1.3-0.2-1.7-0.7
	c-0.4-0.5-0.6-1.1-0.6-2c0-0.6,0.1-1,0.3-1.5c0.2-0.4,0.5-0.7,0.8-0.9c0.4-0.2,0.8-0.3,1.2-0.3c0.6,0,1,0.1,1.4,0.4
	c0.4,0.3,0.6,0.7,0.7,1.2L69,9.3c-0.1-0.3-0.2-0.6-0.4-0.8c-0.2-0.2-0.5-0.3-0.7-0.3c-0.4,0-0.8,0.2-1.1,0.5
	c-0.3,0.3-0.4,0.8-0.4,1.5c0,0.7,0.1,1.2,0.4,1.5c0.3,0.3,0.6,0.5,1,0.5c0.3,0,0.6-0.1,0.9-0.3C68.9,11.7,69,11.4,69.1,10.9z"/>
<path class="st0" d="M70.7,6.7v-1h0.9v1H70.7z M70.7,12.8V7.7h0.9v5.1H70.7z"/>
<path class="st0" d="M72.6,10.2c0-1,0.3-1.7,0.8-2.1c0.4-0.4,1-0.6,1.6-0.6c0.7,0,1.3,0.2,1.7,0.7c0.4,0.5,0.7,1.1,0.7,1.9
	c0,0.7-0.1,1.2-0.3,1.6c-0.2,0.4-0.5,0.7-0.9,0.9c-0.4,0.2-0.8,0.3-1.2,0.3c-0.7,0-1.3-0.2-1.7-0.7C72.8,11.8,72.6,11.1,72.6,10.2z
	 M73.5,10.2c0,0.7,0.1,1.2,0.4,1.5c0.3,0.3,0.6,0.5,1.1,0.5c0.4,0,0.8-0.2,1.1-0.5c0.3-0.3,0.4-0.8,0.4-1.5c0-0.6-0.1-1.1-0.4-1.4
	c-0.3-0.3-0.6-0.5-1.1-0.5c-0.4,0-0.8,0.2-1.1,0.5C73.6,9.1,73.5,9.6,73.5,10.2z M74.5,7l0.6-1.4h1.1L75.2,7H74.5z"/>
<path class="st0" d="M78.4,12.8V7.7h0.8v0.7c0.4-0.6,0.9-0.8,1.6-0.8c0.3,0,0.6,0.1,0.9,0.2C82,7.8,82.1,8,82.3,8.1
	c0.1,0.2,0.2,0.4,0.3,0.6c0,0.2,0,0.4,0,0.8v3.2h-0.9V9.7c0-0.4,0-0.6-0.1-0.8c-0.1-0.2-0.2-0.3-0.4-0.4c-0.2-0.1-0.4-0.2-0.6-0.2
	c-0.4,0-0.7,0.1-1,0.4c-0.3,0.2-0.4,0.7-0.4,1.3v2.8H78.4z"/>
<path class="st0" d="M91.9,10.3l0.9,0.2c-0.2,0.8-0.6,1.4-1.1,1.8c-0.5,0.4-1.1,0.6-1.9,0.6c-0.8,0-1.4-0.2-1.9-0.5
	c-0.5-0.3-0.8-0.8-1.1-1.4c-0.2-0.6-0.4-1.2-0.4-1.9c0-0.7,0.1-1.4,0.4-1.9c0.3-0.6,0.7-1,1.2-1.3c0.5-0.3,1.1-0.4,1.7-0.4
	c0.7,0,1.3,0.2,1.8,0.5c0.5,0.4,0.8,0.9,1,1.5l-0.9,0.2c-0.2-0.5-0.4-0.9-0.7-1.1c-0.3-0.2-0.7-0.4-1.2-0.4c-0.5,0-1,0.1-1.4,0.4
	c-0.4,0.3-0.6,0.6-0.8,1.1c-0.1,0.4-0.2,0.9-0.2,1.4c0,0.6,0.1,1.1,0.3,1.6c0.2,0.4,0.5,0.8,0.8,1c0.4,0.2,0.8,0.3,1.2,0.3
	c0.5,0,1-0.2,1.3-0.5C91.5,11.4,91.8,10.9,91.9,10.3z"/>
<path class="st0" d="M93.5,10.2c0-1,0.3-1.7,0.8-2.1c0.4-0.4,1-0.6,1.6-0.6c0.7,0,1.3,0.2,1.7,0.7c0.4,0.5,0.7,1.1,0.7,1.9
	c0,0.7-0.1,1.2-0.3,1.6c-0.2,0.4-0.5,0.7-0.9,0.9c-0.4,0.2-0.8,0.3-1.2,0.3c-0.7,0-1.3-0.2-1.7-0.7C93.8,11.8,93.5,11.1,93.5,10.2z
	 M94.4,10.2c0,0.7,0.1,1.2,0.4,1.5c0.3,0.3,0.6,0.5,1.1,0.5c0.4,0,0.8-0.2,1.1-0.5c0.3-0.3,0.4-0.8,0.4-1.5c0-0.6-0.1-1.1-0.4-1.4
	c-0.3-0.3-0.6-0.5-1.1-0.5c-0.4,0-0.8,0.2-1.1,0.5C94.6,9.1,94.4,9.6,94.4,10.2z"/>
<path class="st0" d="M99.4,12.8V5.7h0.9v7.1H99.4z"/>
<path class="st0" d="M101.3,10.2c0-1,0.3-1.7,0.8-2.1c0.4-0.4,1-0.6,1.6-0.6c0.7,0,1.3,0.2,1.7,0.7c0.4,0.5,0.7,1.1,0.7,1.9
	c0,0.7-0.1,1.2-0.3,1.6c-0.2,0.4-0.5,0.7-0.9,0.9c-0.4,0.2-0.8,0.3-1.2,0.3c-0.7,0-1.3-0.2-1.8-0.7
	C101.5,11.8,101.3,11.1,101.3,10.2z M102.2,10.2c0,0.7,0.1,1.2,0.4,1.5c0.3,0.3,0.6,0.5,1.1,0.5c0.4,0,0.8-0.2,1.1-0.5
	c0.3-0.3,0.4-0.8,0.4-1.5c0-0.6-0.1-1.1-0.4-1.4c-0.3-0.3-0.6-0.5-1.1-0.5c-0.4,0-0.8,0.2-1.1,0.5C102.3,9.1,102.2,9.6,102.2,10.2z"
	/>
<path class="st0" d="M107.1,12.8V7.7h0.8v0.7c0.2-0.3,0.4-0.5,0.6-0.6c0.3-0.2,0.6-0.2,0.9-0.2c0.4,0,0.7,0.1,0.9,0.2
	c0.2,0.2,0.4,0.4,0.5,0.7c0.4-0.6,0.9-0.9,1.6-0.9c0.5,0,0.9,0.1,1.2,0.4c0.3,0.3,0.4,0.7,0.4,1.3v3.5h-0.9V9.6c0-0.3,0-0.6-0.1-0.8
	c-0.1-0.2-0.2-0.3-0.3-0.4c-0.1-0.1-0.3-0.1-0.5-0.1c-0.4,0-0.7,0.1-0.9,0.4c-0.2,0.2-0.4,0.6-0.4,1.2v3h-0.9V9.5
	c0-0.4-0.1-0.7-0.2-0.9c-0.1-0.2-0.4-0.3-0.7-0.3c-0.2,0-0.5,0.1-0.7,0.2c-0.2,0.1-0.4,0.3-0.5,0.6c-0.1,0.2-0.1,0.6-0.1,1.1v2.7
	H107.1z"/>
<path class="st0" d="M116.2,12.8h-0.8V5.7h0.9v2.5c0.4-0.5,0.8-0.7,1.4-0.7c0.3,0,0.6,0.1,0.9,0.2c0.3,0.1,0.5,0.3,0.7,0.5
	c0.2,0.2,0.3,0.5,0.4,0.8c0.1,0.3,0.2,0.7,0.2,1c0,0.9-0.2,1.6-0.7,2c-0.4,0.5-1,0.7-1.6,0.7c-0.6,0-1.1-0.3-1.4-0.8V12.8z
	 M116.2,10.2c0,0.6,0.1,1.1,0.3,1.3c0.3,0.4,0.6,0.7,1.1,0.7c0.4,0,0.7-0.2,1-0.5c0.3-0.3,0.4-0.8,0.4-1.5c0-0.7-0.1-1.2-0.4-1.5
	c-0.3-0.3-0.6-0.5-1-0.5c-0.4,0-0.7,0.2-1,0.5C116.3,9.1,116.2,9.6,116.2,10.2z"/>
<path class="st0" d="M120.9,6.7v-1h0.9v1H120.9z M120.9,12.8V7.7h0.9v5.1H120.9z"/>
<path class="st0" d="M126.5,12.2c-0.3,0.3-0.6,0.5-0.9,0.6c-0.3,0.1-0.6,0.2-1,0.2c-0.6,0-1-0.1-1.3-0.4c-0.3-0.3-0.5-0.6-0.5-1.1
	c0-0.3,0.1-0.5,0.2-0.7c0.1-0.2,0.3-0.4,0.5-0.5c0.2-0.1,0.4-0.2,0.6-0.3c0.2,0,0.4-0.1,0.8-0.1c0.7-0.1,1.2-0.2,1.6-0.3
	c0-0.1,0-0.2,0-0.2c0-0.4-0.1-0.6-0.2-0.8c-0.2-0.2-0.6-0.3-1-0.3c-0.4,0-0.7,0.1-0.9,0.2c-0.2,0.1-0.3,0.4-0.4,0.8L123,9.1
	c0.1-0.4,0.2-0.7,0.4-0.9c0.2-0.2,0.4-0.4,0.8-0.5c0.3-0.1,0.7-0.2,1.2-0.2c0.4,0,0.8,0.1,1.1,0.2c0.3,0.1,0.5,0.2,0.6,0.4
	c0.1,0.2,0.2,0.4,0.3,0.6c0,0.1,0,0.4,0,0.8v1.2c0,0.8,0,1.3,0.1,1.5c0,0.2,0.1,0.4,0.2,0.6h-0.9C126.6,12.6,126.5,12.4,126.5,12.2z
	 M126.4,10.2c-0.3,0.1-0.8,0.2-1.4,0.3c-0.4,0.1-0.6,0.1-0.8,0.2c-0.1,0.1-0.3,0.2-0.3,0.3c-0.1,0.1-0.1,0.3-0.1,0.4
	c0,0.2,0.1,0.4,0.3,0.6c0.2,0.2,0.4,0.2,0.8,0.2c0.3,0,0.6-0.1,0.9-0.2c0.3-0.1,0.5-0.4,0.6-0.6c0.1-0.2,0.1-0.5,0.1-0.9V10.2z"/>
<path class="st0" d="M128.7,12.8V7.7h0.8v0.7c0.4-0.6,0.9-0.8,1.6-0.8c0.3,0,0.6,0.1,0.9,0.2c0.3,0.1,0.5,0.3,0.6,0.4
	c0.1,0.2,0.2,0.4,0.3,0.6c0,0.2,0,0.4,0,0.8v3.2H132V9.7c0-0.4,0-0.6-0.1-0.8c-0.1-0.2-0.2-0.3-0.4-0.4c-0.2-0.1-0.4-0.2-0.6-0.2
	c-0.4,0-0.7,0.1-1,0.4c-0.3,0.2-0.4,0.7-0.4,1.3v2.8H128.7z"/>
<path class="st0" d="M137.5,12.2c-0.3,0.3-0.6,0.5-0.9,0.6c-0.3,0.1-0.6,0.2-1,0.2c-0.6,0-1-0.1-1.3-0.4c-0.3-0.3-0.5-0.6-0.5-1.1
	c0-0.3,0.1-0.5,0.2-0.7c0.1-0.2,0.3-0.4,0.4-0.5c0.2-0.1,0.4-0.2,0.6-0.3c0.2,0,0.4-0.1,0.8-0.1c0.7-0.1,1.2-0.2,1.6-0.3
	c0-0.1,0-0.2,0-0.2c0-0.4-0.1-0.6-0.2-0.8c-0.2-0.2-0.6-0.3-1-0.3c-0.4,0-0.7,0.1-0.9,0.2c-0.2,0.1-0.3,0.4-0.4,0.8L134,9.1
	c0.1-0.4,0.2-0.7,0.4-0.9c0.2-0.2,0.4-0.4,0.8-0.5c0.3-0.1,0.7-0.2,1.2-0.2c0.4,0,0.8,0.1,1.1,0.2c0.3,0.1,0.5,0.2,0.6,0.4
	c0.1,0.2,0.2,0.4,0.3,0.6c0,0.1,0,0.4,0,0.8v1.2c0,0.8,0,1.3,0.1,1.5c0,0.2,0.1,0.4,0.2,0.6h-0.9C137.6,12.6,137.6,12.4,137.5,12.2z
	 M137.5,10.2c-0.3,0.1-0.8,0.2-1.4,0.3c-0.4,0.1-0.6,0.1-0.8,0.2c-0.1,0.1-0.3,0.2-0.3,0.3c-0.1,0.1-0.1,0.3-0.1,0.4
	c0,0.2,0.1,0.4,0.3,0.6c0.2,0.2,0.4,0.2,0.8,0.2c0.3,0,0.6-0.1,0.9-0.2c0.3-0.1,0.5-0.4,0.6-0.6c0.1-0.2,0.1-0.5,0.1-0.9V10.2z"/>
<path class="st0" d="M145.8,12.8v-0.6c-0.3,0.5-0.8,0.8-1.4,0.8c-0.4,0-0.8-0.1-1.1-0.3c-0.3-0.2-0.6-0.5-0.8-0.9
	c-0.2-0.4-0.3-0.9-0.3-1.4c0-0.5,0.1-1,0.3-1.4c0.2-0.4,0.4-0.7,0.8-1c0.3-0.2,0.7-0.3,1.1-0.3c0.3,0,0.6,0.1,0.8,0.2
	c0.2,0.1,0.4,0.3,0.6,0.5V5.7h0.9v7.1H145.8z M143,10.2c0,0.7,0.1,1.2,0.4,1.5s0.6,0.5,1,0.5c0.4,0,0.7-0.2,1-0.5
	c0.3-0.3,0.4-0.8,0.4-1.4c0-0.7-0.1-1.2-0.4-1.6c-0.3-0.3-0.6-0.5-1-0.5c-0.4,0-0.7,0.2-1,0.5C143.2,9.1,143,9.6,143,10.2z"/>
<path class="st0" d="M151.5,11.1l0.9,0.1c-0.1,0.5-0.4,0.9-0.8,1.2c-0.4,0.3-0.9,0.4-1.5,0.4c-0.8,0-1.4-0.2-1.8-0.7
	c-0.4-0.5-0.7-1.1-0.7-2c0-0.9,0.2-1.5,0.7-2c0.4-0.5,1-0.7,1.7-0.7c0.7,0,1.2,0.2,1.7,0.7c0.4,0.5,0.7,1.1,0.7,2c0,0.1,0,0.1,0,0.2
	h-3.8c0,0.6,0.2,1,0.5,1.3c0.3,0.3,0.6,0.5,1.1,0.5c0.3,0,0.6-0.1,0.8-0.3C151.2,11.8,151.4,11.5,151.5,11.1z M148.6,9.7h2.9
	c0-0.4-0.1-0.8-0.3-1c-0.3-0.3-0.6-0.5-1.1-0.5c-0.4,0-0.7,0.1-1,0.4C148.8,8.9,148.7,9.3,148.6,9.7z"/>
<path class="st0" d="M156.3,12.8V5.7h2.1l1.3,4.8l1.3-4.8h2.2v7.1h-1.3V7.2l-1.4,5.6h-1.4l-1.4-5.6v5.6H156.3z"/>
<path class="st0" d="M167.6,11.2l1.4,0.2c-0.2,0.5-0.5,0.9-0.8,1.1c-0.4,0.3-0.8,0.4-1.4,0.4c-0.9,0-1.6-0.3-2-0.9
	c-0.3-0.5-0.5-1.1-0.5-1.8c0-0.9,0.2-1.5,0.7-2c0.4-0.5,1-0.7,1.7-0.7c0.8,0,1.4,0.3,1.8,0.8c0.4,0.5,0.7,1.3,0.6,2.3h-3.4
	c0,0.4,0.1,0.7,0.3,0.9c0.2,0.2,0.5,0.3,0.8,0.3c0.2,0,0.4-0.1,0.5-0.2C167.4,11.6,167.5,11.4,167.6,11.2z M167.7,9.8
	c0-0.4-0.1-0.7-0.3-0.9c-0.2-0.2-0.4-0.3-0.7-0.3c-0.3,0-0.5,0.1-0.7,0.3c-0.2,0.2-0.3,0.5-0.3,0.9H167.7z"/>
<path class="st0" d="M174.8,12.8h-1.3v-0.8c-0.2,0.3-0.5,0.5-0.7,0.7c-0.3,0.1-0.6,0.2-0.9,0.2c-0.6,0-1.1-0.2-1.5-0.7
	c-0.4-0.5-0.6-1.1-0.6-2c0-0.9,0.2-1.5,0.6-2c0.4-0.5,0.9-0.7,1.6-0.7c0.6,0,1.1,0.2,1.5,0.7V5.7h1.4V12.8z M171.2,10.1
	c0,0.5,0.1,0.9,0.2,1.2c0.2,0.4,0.5,0.5,0.9,0.5c0.3,0,0.6-0.1,0.8-0.4c0.2-0.3,0.3-0.7,0.3-1.2c0-0.6-0.1-1-0.3-1.3
	c-0.2-0.3-0.5-0.4-0.8-0.4c-0.3,0-0.6,0.1-0.8,0.4C171.3,9.2,171.2,9.6,171.2,10.1z"/>
<path class="st0" d="M176.2,7V5.7h1.4V7H176.2z M176.2,12.8V7.7h1.4v5.1H176.2z"/>
<path class="st0" d="M183.4,9.2l-1.3,0.2c0-0.3-0.1-0.5-0.3-0.6c-0.2-0.1-0.4-0.2-0.6-0.2c-0.3,0-0.6,0.1-0.8,0.4
	c-0.2,0.2-0.3,0.6-0.3,1.2c0,0.6,0.1,1,0.3,1.3c0.2,0.3,0.5,0.4,0.8,0.4c0.3,0,0.5-0.1,0.6-0.2c0.2-0.1,0.3-0.4,0.3-0.8l1.3,0.2
	c-0.1,0.6-0.4,1.1-0.8,1.4c-0.4,0.3-0.9,0.5-1.6,0.5c-0.8,0-1.4-0.2-1.8-0.7c-0.4-0.5-0.7-1.1-0.7-2c0-0.8,0.2-1.5,0.7-2
	c0.4-0.5,1.1-0.7,1.8-0.7c0.6,0,1.1,0.1,1.5,0.4C183,8.2,183.3,8.6,183.4,9.2z"/>
<path class="st0" d="M184.5,7V5.7h1.4V7H184.5z M184.5,12.8V7.7h1.4v5.1H184.5z"/>
<path class="st0" d="M191.9,12.8h-1.4v-2.6c0-0.6,0-0.9-0.1-1.1c-0.1-0.2-0.2-0.3-0.3-0.4c-0.1-0.1-0.3-0.1-0.5-0.1
	c-0.2,0-0.4,0.1-0.6,0.2c-0.2,0.1-0.3,0.3-0.4,0.5c-0.1,0.2-0.1,0.6-0.1,1.2v2.3h-1.4V7.7h1.3v0.8c0.4-0.6,1-0.9,1.7-0.9
	c0.3,0,0.6,0.1,0.8,0.2c0.2,0.1,0.4,0.2,0.6,0.4c0.1,0.2,0.2,0.4,0.3,0.6c0.1,0.2,0.1,0.5,0.1,0.9V12.8z"/>
<path class="st0" d="M194.3,9.2L193.1,9c0.1-0.5,0.4-0.9,0.7-1.1c0.3-0.2,0.8-0.4,1.5-0.4c0.6,0,1.1,0.1,1.4,0.2
	c0.3,0.1,0.5,0.3,0.6,0.5c0.1,0.2,0.2,0.6,0.2,1.2l0,1.6c0,0.5,0,0.8,0.1,1c0,0.2,0.1,0.4,0.2,0.7h-1.3c0-0.1-0.1-0.2-0.1-0.4
	c0-0.1,0-0.1,0-0.2c-0.2,0.2-0.5,0.4-0.7,0.5c-0.3,0.1-0.5,0.2-0.8,0.2c-0.5,0-0.9-0.1-1.3-0.4c-0.3-0.3-0.5-0.7-0.5-1.1
	c0-0.3,0.1-0.5,0.2-0.8c0.1-0.2,0.3-0.4,0.6-0.5c0.3-0.1,0.6-0.2,1.1-0.3c0.6-0.1,1.1-0.2,1.3-0.3V9.3c0-0.3-0.1-0.4-0.2-0.6
	c-0.1-0.1-0.4-0.2-0.7-0.2c-0.2,0-0.4,0-0.6,0.1C194.5,8.8,194.4,9,194.3,9.2z M196.1,10.3c-0.2,0.1-0.5,0.1-0.8,0.2
	c-0.4,0.1-0.6,0.2-0.7,0.2c-0.2,0.1-0.3,0.3-0.3,0.5c0,0.2,0.1,0.4,0.2,0.5s0.3,0.2,0.5,0.2c0.2,0,0.5-0.1,0.7-0.2
	c0.2-0.1,0.3-0.3,0.3-0.5c0-0.1,0.1-0.3,0.1-0.7V10.3z"/>
<path class="st0" d="M40.5,21.6l1.4,0.4c-0.2,0.8-0.6,1.4-1.1,1.7c-0.5,0.4-1.1,0.6-1.9,0.6c-0.9,0-1.7-0.3-2.3-1
	c-0.6-0.6-0.9-1.5-0.9-2.6c0-1.2,0.3-2.1,0.9-2.8c0.6-0.7,1.4-1,2.4-1c0.9,0,1.6,0.3,2.1,0.8c0.3,0.3,0.6,0.7,0.7,1.3l-1.4,0.3
	c-0.1-0.4-0.3-0.7-0.5-0.9c-0.3-0.2-0.6-0.3-1-0.3c-0.5,0-1,0.2-1.3,0.6c-0.3,0.4-0.5,1-0.5,1.8c0,0.9,0.2,1.5,0.5,1.9
	c0.3,0.4,0.7,0.6,1.3,0.6c0.4,0,0.7-0.1,1-0.4C40.2,22.5,40.4,22.1,40.5,21.6z"/>
<path class="st0" d="M44.5,24.2h-1.4v-5.1h1.3v0.7c0.2-0.3,0.4-0.6,0.6-0.7c0.2-0.1,0.4-0.2,0.6-0.2c0.3,0,0.6,0.1,0.9,0.3L46,20.4
	c-0.2-0.1-0.4-0.2-0.6-0.2c-0.2,0-0.4,0.1-0.5,0.2c-0.1,0.1-0.2,0.3-0.3,0.6c-0.1,0.3-0.1,0.8-0.1,1.7V24.2z"/>
<path class="st0" d="M47,24.2v-5.1h1.4v5.1H47z M46.9,18.5l0.7-1.4h1.5l-1.3,1.4H46.9z"/>
<path class="st0" d="M52.1,19.1v1.1h-0.9v2.1c0,0.4,0,0.7,0,0.7c0,0.1,0.1,0.1,0.1,0.2c0.1,0,0.1,0.1,0.2,0.1c0.1,0,0.3,0,0.5-0.1
	l0.1,1.1c-0.3,0.1-0.7,0.2-1.1,0.2c-0.2,0-0.5,0-0.7-0.1c-0.2-0.1-0.3-0.2-0.4-0.3c-0.1-0.1-0.2-0.3-0.2-0.5c0-0.2,0-0.5,0-1v-2.2
	h-0.6v-1.1h0.6v-1l1.4-0.8v1.8H52.1z"/>
<path class="st0" d="M53.1,18.4v-1.3h1.4v1.3H53.1z M53.1,24.2v-5.1h1.4v5.1H53.1z"/>
<path class="st0" d="M60.3,20.6L59,20.9c0-0.3-0.1-0.5-0.3-0.6c-0.2-0.1-0.4-0.2-0.6-0.2c-0.3,0-0.6,0.1-0.8,0.4
	c-0.2,0.2-0.3,0.6-0.3,1.2c0,0.6,0.1,1,0.3,1.3c0.2,0.3,0.5,0.4,0.8,0.4c0.3,0,0.5-0.1,0.6-0.2c0.2-0.1,0.3-0.4,0.3-0.8l1.3,0.2
	c-0.1,0.6-0.4,1.1-0.8,1.4c-0.4,0.3-0.9,0.5-1.6,0.5c-0.8,0-1.4-0.2-1.8-0.7c-0.4-0.5-0.7-1.1-0.7-2c0-0.8,0.2-1.5,0.7-2
	c0.4-0.5,1.1-0.7,1.8-0.7c0.6,0,1.1,0.1,1.5,0.4C59.9,19.6,60.2,20.1,60.3,20.6z"/>
<path class="st0" d="M62.4,20.7l-1.2-0.2c0.1-0.5,0.4-0.9,0.7-1.1c0.3-0.2,0.8-0.4,1.5-0.4c0.6,0,1.1,0.1,1.4,0.2
	c0.3,0.1,0.5,0.3,0.6,0.5c0.1,0.2,0.2,0.6,0.2,1.2l0,1.6c0,0.5,0,0.8,0.1,1c0,0.2,0.1,0.4,0.2,0.7h-1.3c0-0.1-0.1-0.2-0.1-0.4
	c0-0.1,0-0.1,0-0.2c-0.2,0.2-0.5,0.4-0.7,0.5c-0.3,0.1-0.5,0.2-0.8,0.2c-0.5,0-0.9-0.1-1.3-0.4c-0.3-0.3-0.5-0.7-0.5-1.1
	c0-0.3,0.1-0.5,0.2-0.8c0.1-0.2,0.3-0.4,0.6-0.5c0.3-0.1,0.6-0.2,1.1-0.3c0.6-0.1,1.1-0.2,1.3-0.3v-0.1c0-0.3-0.1-0.4-0.2-0.6
	c-0.1-0.1-0.4-0.2-0.7-0.2c-0.2,0-0.4,0-0.6,0.1C62.6,20.3,62.5,20.4,62.4,20.7z M64.2,21.8c-0.2,0.1-0.5,0.1-0.8,0.2
	c-0.4,0.1-0.6,0.2-0.7,0.2c-0.2,0.1-0.3,0.3-0.3,0.5c0,0.2,0.1,0.4,0.2,0.5c0.1,0.1,0.3,0.2,0.5,0.2c0.2,0,0.5-0.1,0.7-0.2
	c0.2-0.1,0.3-0.3,0.3-0.5c0-0.1,0.1-0.3,0.1-0.7V21.8z"/>
<path class="st0" d="M69,19.1h1.4l1.2,3.7l1.2-3.7h1.4l-1.8,5l-0.3,0.9c-0.1,0.3-0.2,0.5-0.3,0.7c-0.1,0.2-0.2,0.3-0.4,0.4
	c-0.1,0.1-0.3,0.2-0.5,0.2c-0.2,0.1-0.4,0.1-0.7,0.1c-0.3,0-0.5,0-0.8-0.1l-0.1-1.1c0.2,0,0.4,0.1,0.6,0.1c0.3,0,0.6-0.1,0.7-0.3
	c0.2-0.2,0.3-0.4,0.3-0.7L69,19.1z"/>
<path class="st0" d="M82.5,21.6l1.4,0.4c-0.2,0.8-0.6,1.4-1.1,1.7c-0.5,0.4-1.1,0.6-1.9,0.6c-0.9,0-1.7-0.3-2.3-1
	c-0.6-0.6-0.9-1.5-0.9-2.6c0-1.2,0.3-2.1,0.9-2.8c0.6-0.7,1.4-1,2.4-1c0.9,0,1.6,0.3,2.1,0.8c0.3,0.3,0.6,0.7,0.7,1.3l-1.4,0.3
	c-0.1-0.4-0.3-0.7-0.5-0.9c-0.3-0.2-0.6-0.3-1-0.3c-0.5,0-1,0.2-1.3,0.6c-0.3,0.4-0.5,1-0.5,1.8c0,0.9,0.2,1.5,0.5,1.9
	c0.3,0.4,0.7,0.6,1.3,0.6c0.4,0,0.7-0.1,1-0.4C82.2,22.5,82.4,22.1,82.5,21.6z"/>
<path class="st0" d="M88.5,24.2v-0.8c-0.2,0.3-0.4,0.5-0.7,0.6c-0.3,0.2-0.6,0.2-1,0.2c-0.3,0-0.7-0.1-0.9-0.2
	c-0.3-0.2-0.5-0.4-0.6-0.6c-0.1-0.3-0.2-0.7-0.2-1.1v-3.3h1.4v2.4c0,0.7,0,1.2,0.1,1.3c0.1,0.2,0.1,0.3,0.3,0.4
	c0.1,0.1,0.3,0.1,0.5,0.1c0.2,0,0.4-0.1,0.6-0.2c0.2-0.1,0.3-0.3,0.4-0.5c0.1-0.2,0.1-0.7,0.1-1.4v-2.2h1.4v5.1H88.5z"/>
<path class="st0" d="M91.2,18.4v-1.3h1.4v1.3H91.2z M91.2,24.2v-5.1h1.4v5.1H91.2z"/>
<path class="st0" d="M98.7,24.2h-1.3v-0.8c-0.2,0.3-0.5,0.5-0.7,0.7c-0.3,0.1-0.6,0.2-0.9,0.2c-0.6,0-1.1-0.2-1.5-0.7
	c-0.4-0.5-0.6-1.1-0.6-2c0-0.9,0.2-1.5,0.6-2c0.4-0.5,0.9-0.7,1.6-0.7c0.6,0,1.1,0.2,1.5,0.7v-2.6h1.4V24.2z M95,21.6
	c0,0.5,0.1,0.9,0.2,1.2c0.2,0.4,0.5,0.5,0.9,0.5c0.3,0,0.6-0.1,0.8-0.4c0.2-0.3,0.3-0.7,0.3-1.2c0-0.6-0.1-1-0.3-1.3
	c-0.2-0.3-0.5-0.4-0.8-0.4c-0.3,0-0.6,0.1-0.8,0.4C95.1,20.7,95,21,95,21.6z"/>
<path class="st0" d="M101,20.7l-1.2-0.2c0.1-0.5,0.4-0.9,0.7-1.1c0.3-0.2,0.8-0.4,1.5-0.4c0.6,0,1.1,0.1,1.4,0.2
	c0.3,0.1,0.5,0.3,0.6,0.5c0.1,0.2,0.2,0.6,0.2,1.2l0,1.6c0,0.5,0,0.8,0.1,1c0,0.2,0.1,0.4,0.2,0.7h-1.3c0-0.1-0.1-0.2-0.1-0.4
	c0-0.1,0-0.1,0-0.2c-0.2,0.2-0.5,0.4-0.7,0.5c-0.3,0.1-0.5,0.2-0.8,0.2c-0.5,0-0.9-0.1-1.3-0.4c-0.3-0.3-0.5-0.7-0.5-1.1
	c0-0.3,0.1-0.5,0.2-0.8c0.1-0.2,0.3-0.4,0.6-0.5c0.3-0.1,0.6-0.2,1.1-0.3c0.6-0.1,1.1-0.2,1.3-0.3v-0.1c0-0.3-0.1-0.4-0.2-0.6
	c-0.1-0.1-0.4-0.2-0.7-0.2c-0.2,0-0.4,0-0.6,0.1C101.2,20.3,101.1,20.4,101,20.7z M102.8,21.8c-0.2,0.1-0.5,0.1-0.8,0.2
	c-0.4,0.1-0.6,0.2-0.7,0.2c-0.2,0.1-0.3,0.3-0.3,0.5c0,0.2,0.1,0.4,0.2,0.5c0.1,0.1,0.3,0.2,0.5,0.2c0.2,0,0.5-0.1,0.7-0.2
	c0.2-0.1,0.3-0.3,0.3-0.5c0-0.1,0.1-0.3,0.1-0.7V21.8z"/>
<path class="st0" d="M110.2,24.2H109v-0.8c-0.2,0.3-0.5,0.5-0.7,0.7c-0.3,0.1-0.6,0.2-0.9,0.2c-0.6,0-1.1-0.2-1.5-0.7
	c-0.4-0.5-0.6-1.1-0.6-2c0-0.9,0.2-1.5,0.6-2c0.4-0.5,0.9-0.7,1.6-0.7c0.6,0,1.1,0.2,1.5,0.7v-2.6h1.4V24.2z M106.6,21.6
	c0,0.5,0.1,0.9,0.2,1.2c0.2,0.4,0.5,0.5,0.9,0.5c0.3,0,0.6-0.1,0.8-0.4c0.2-0.3,0.3-0.7,0.3-1.2c0-0.6-0.1-1-0.3-1.3
	c-0.2-0.3-0.5-0.4-0.8-0.4c-0.3,0-0.6,0.1-0.8,0.4C106.7,20.7,106.6,21,106.6,21.6z"/>
<path class="st0" d="M111.3,21.6c0-0.5,0.1-0.9,0.3-1.3c0.2-0.4,0.5-0.7,0.9-1c0.4-0.2,0.9-0.3,1.4-0.3c0.8,0,1.4,0.3,1.9,0.8
	c0.5,0.5,0.7,1.1,0.7,1.9c0,0.8-0.3,1.4-0.8,1.9c-0.5,0.5-1.1,0.8-1.9,0.8c-0.5,0-0.9-0.1-1.4-0.3c-0.4-0.2-0.8-0.5-1-0.9
	C111.4,22.7,111.3,22.2,111.3,21.6z M112.7,21.7c0,0.5,0.1,0.9,0.4,1.2c0.2,0.3,0.5,0.4,0.9,0.4c0.4,0,0.7-0.1,0.9-0.4
	c0.2-0.3,0.4-0.7,0.4-1.2c0-0.5-0.1-0.9-0.4-1.2c-0.2-0.3-0.5-0.4-0.9-0.4c-0.4,0-0.7,0.1-0.9,0.4C112.8,20.8,112.7,21.2,112.7,21.7
	z"/>
<path class="st0" d="M120.4,24.2v-7.1h1.4v7.1H120.4z"/>
<path class="st0" d="M127.9,24.2h-1.4v-2.6c0-0.6,0-0.9-0.1-1.1c-0.1-0.2-0.2-0.3-0.3-0.4c-0.1-0.1-0.3-0.1-0.5-0.1
	c-0.2,0-0.4,0.1-0.6,0.2c-0.2,0.1-0.3,0.3-0.4,0.5c-0.1,0.2-0.1,0.6-0.1,1.2v2.3h-1.4v-5.1h1.3v0.8c0.4-0.6,1-0.9,1.7-0.9
	c0.3,0,0.6,0.1,0.8,0.2c0.2,0.1,0.4,0.2,0.6,0.4c0.1,0.2,0.2,0.4,0.3,0.6c0.1,0.2,0.1,0.5,0.1,0.9V24.2z"/>
<path class="st0" d="M131.6,19.1v1.1h-0.9v2.1c0,0.4,0,0.7,0,0.7c0,0.1,0.1,0.1,0.1,0.2c0.1,0,0.1,0.1,0.2,0.1c0.1,0,0.3,0,0.5-0.1
	l0.1,1.1c-0.3,0.1-0.7,0.2-1.1,0.2c-0.2,0-0.5,0-0.7-0.1c-0.2-0.1-0.3-0.2-0.4-0.3c-0.1-0.1-0.2-0.3-0.2-0.5c0-0.2,0-0.5,0-1v-2.2
	h-0.6v-1.1h0.6v-1l1.4-0.8v1.8H131.6z"/>
<path class="st0" d="M135.5,22.6l1.4,0.2c-0.2,0.5-0.4,0.9-0.8,1.1c-0.4,0.3-0.8,0.4-1.4,0.4c-0.9,0-1.6-0.3-2-0.9
	c-0.3-0.5-0.5-1.1-0.5-1.8c0-0.9,0.2-1.5,0.7-2c0.4-0.5,1-0.7,1.7-0.7c0.8,0,1.4,0.3,1.8,0.8c0.4,0.5,0.7,1.3,0.6,2.3h-3.4
	c0,0.4,0.1,0.7,0.3,0.9c0.2,0.2,0.5,0.3,0.8,0.3c0.2,0,0.4-0.1,0.5-0.2C135.4,23,135.5,22.9,135.5,22.6z M135.6,21.2
	c0-0.4-0.1-0.7-0.3-0.9c-0.2-0.2-0.4-0.3-0.7-0.3c-0.3,0-0.5,0.1-0.7,0.3s-0.3,0.5-0.3,0.9H135.6z"/>
<path class="st0" d="M142.8,24.2h-1.4v-2.6c0-0.6,0-0.9-0.1-1.1c-0.1-0.2-0.2-0.3-0.3-0.4c-0.1-0.1-0.3-0.1-0.5-0.1
	c-0.2,0-0.4,0.1-0.6,0.2c-0.2,0.1-0.3,0.3-0.4,0.5c-0.1,0.2-0.1,0.6-0.1,1.2v2.3h-1.4v-5.1h1.3v0.8c0.4-0.6,1-0.9,1.7-0.9
	c0.3,0,0.6,0.1,0.8,0.2c0.2,0.1,0.4,0.2,0.6,0.4c0.1,0.2,0.2,0.4,0.3,0.6c0.1,0.2,0.1,0.5,0.1,0.9V24.2z"/>
<path class="st0" d="M143.7,22.8l1.4-0.2c0.1,0.3,0.2,0.5,0.4,0.6c0.2,0.1,0.4,0.2,0.7,0.2c0.4,0,0.6-0.1,0.8-0.2
	c0.1-0.1,0.2-0.2,0.2-0.4c0-0.1,0-0.2-0.1-0.3c-0.1-0.1-0.2-0.1-0.5-0.2c-1.1-0.2-1.8-0.5-2.1-0.7c-0.4-0.3-0.6-0.7-0.6-1.2
	c0-0.4,0.2-0.8,0.5-1.1s0.9-0.5,1.6-0.5c0.7,0,1.2,0.1,1.6,0.3c0.3,0.2,0.6,0.6,0.7,1l-1.3,0.2c-0.1-0.2-0.2-0.4-0.3-0.5
	c-0.2-0.1-0.4-0.2-0.7-0.2c-0.4,0-0.6,0.1-0.8,0.2c-0.1,0.1-0.2,0.2-0.2,0.3c0,0.1,0,0.2,0.1,0.2c0.1,0.1,0.5,0.2,1.3,0.4
	c0.7,0.2,1.2,0.4,1.5,0.6c0.3,0.2,0.4,0.6,0.4,1c0,0.5-0.2,0.9-0.6,1.2c-0.4,0.3-1,0.5-1.7,0.5c-0.7,0-1.3-0.1-1.7-0.4
	C144.1,23.6,143.8,23.3,143.7,22.8z"/>
<path class="st0" d="M149.7,18.4v-1.3h1.4v1.3H149.7z M149.7,24.2v-5.1h1.4v5.1H149.7z"/>
<path class="st0" d="M153.9,24.2l-2.1-5.1h1.4l1,2.6l0.3,0.9c0.1-0.2,0.1-0.4,0.1-0.4c0-0.1,0.1-0.3,0.1-0.4l1-2.6h1.4l-2,5.1H153.9
	z"/>
<path class="st0" d="M157.6,21.6c0-0.5,0.1-0.9,0.3-1.3c0.2-0.4,0.5-0.7,0.9-1c0.4-0.2,0.9-0.3,1.4-0.3c0.8,0,1.4,0.3,1.9,0.8
	c0.5,0.5,0.7,1.1,0.7,1.9c0,0.8-0.3,1.4-0.8,1.9c-0.5,0.5-1.1,0.8-1.9,0.8c-0.5,0-0.9-0.1-1.4-0.3c-0.4-0.2-0.8-0.5-1-0.9
	C157.8,22.7,157.6,22.2,157.6,21.6z M159,21.7c0,0.5,0.1,0.9,0.4,1.2c0.2,0.3,0.5,0.4,0.9,0.4c0.4,0,0.7-0.1,0.9-0.4
	c0.2-0.3,0.4-0.7,0.4-1.2c0-0.5-0.1-0.9-0.4-1.2c-0.2-0.3-0.5-0.4-0.9-0.4c-0.4,0-0.7,0.1-0.9,0.4C159.2,20.8,159,21.2,159,21.7z"/>
<g>
	<path class="st0" d="M16.4,11.9c1.2-2,2.9-3.9,5-5.4l-6.9,0.1C15.9,8.1,16.5,9.9,16.4,11.9z M17.8,7.3c0.6,0,0.9,0.5,0.7,1.2
		c-0.2,0.7-0.8,1.2-1.4,1.2c-0.6,0-0.9-0.5-0.7-1.2C16.6,7.8,17.2,7.3,17.8,7.3z"/>
	<path class="st0" d="M10.9,21.6l5,0c-0.8-1.3-1.2-2.8-1.1-4.4C13.8,18.8,12.5,20.3,10.9,21.6z"/>
	<path class="st0" d="M26.4-0.3H4.8C2.1-0.3,0,1.8,0,4.5v20.4c0,2.7,2.1,4.8,4.8,4.8h21.6c2.7,0,4.8-2.1,4.8-4.8V4.5
		C31.2,1.8,29.1-0.3,26.4-0.3z M25.8,6.5l-3.1,0c-4.7,3.2-8.5,10.4-4.7,15l3.4,0c-0.1,0.2-0.1,0.5-0.8,0.5l-2.2,0
		c0.6,0.6,1.4,1.2,2.4,1.8c0.2,0.1-0.6,0.9-1.2,0.6c-1.5-0.6-2.5-1.4-3.3-2.3l-6,0.1c-1.3,1-2.8,1.8-4.5,2.4
		c-0.8,0.3-1.1-0.5-0.9-0.6c1.2-0.5,2.3-1.1,3.3-1.8l-3.8,0c0.1-0.3,0.4-0.5,0.8-0.5l3.7,0c6.9-4.9,7.5-11.8,4.8-15l-3.9,0
		c0.1-0.2,0.1-0.5,0.7-0.5l2.7,0c-0.6-0.6-1.3-1-2.2-1.2c-0.4-0.2,0-0.5,0.1-0.4c1.1,0.4,2.1,1,2.8,1.6L22.2,6
		c1.2-0.8,2.6-1.4,4.1-1.8c0.1,0,0.3,0.6-0.1,0.7c-0.9,0.2-1.8,0.6-2.8,1.1l3.1,0c0,0,0,0,0,0.1C26.5,6.3,26.2,6.5,25.8,6.5z"/>
</g>
</svg>
